<?xml version="1.0" encoding="UTF-8" standalone="no"?>
<!-- Created with Inkscape (http://www.inkscape.org/) -->

<svg
   width="297mm"
   height="210mm"
   viewBox="0 0 297 210"
   version="1.1"
   id="svg1"
   xml:space="preserve"
   xmlns="http://www.w3.org/2000/svg"
   xmlns:svg="http://www.w3.org/2000/svg"><defs
     id="defs1" /><g
     id="layer1"><path
       style="fill:#0000ff;fill-opacity:1;fill-rule:nonzero;stroke:none;stroke-width:0;stroke-dasharray:none;stroke-opacity:1"
       d="m 136.21983,79.196022 c -1.70327,3.237173 -3.56129,6.282641 -5.8144,9.173287 -9.03715,11.594307 -21.13212,21.945781 -21.13212,37.839811 0,2.96585 0.31503,6.2404 1.52888,8.98218 -3.60571,1.50119 -5.97064,5.62977 -3.60559,9.36439 1.40424,2.21741 4.13392,2.24257 3.015,5.35109 -2.60781,7.24488 -12.2507,8.12802 -13.44083,16.43547 -0.17416,1.21574 -0.0534,2.43258 0.20807,3.63109 0.34504,1.58152 1.33416,2.67814 2.16563,4.01331 -4.17524,0.99267 -4.01332,6.45114 -4.01332,9.74662 0,1.74584 0.034,3.43567 1.35783,4.7577 2.36138,2.35818 7.81932,1.35782 10.87322,1.35782 h 53.70195 17.19991 c 3.2011,0 6.58235,0.30935 9.74662,-0.22841 2.87325,-0.48829 3.63011,-3.17426 3.63109,-5.696 0.002,-4.01897 -0.24234,-8.00871 -4.20442,-10.12884 v -0.19111 c 1.43243,-1.0332 2.10339,-2.69222 2.37163,-4.39553 1.30964,-8.31649 -6.74446,-10.86913 -11.33596,-15.86214 -1.20242,-1.30756 -2.42009,-3.318 -2.45789,-5.15983 -0.028,-1.36379 1.76633,-1.75547 2.61331,-2.54208 1.19857,-1.11316 1.73224,-2.9222 1.73224,-4.52914 0,-1.58481 -0.51691,-3.42127 -1.74757,-4.48549 -1.65144,-1.42808 -4.66392,-1.10369 -3.45621,-4.11092 0.5147,-1.28162 2.7746,-2.11719 3.8716,-2.87506 2.34566,-1.62051 4.55221,-3.70382 6.34394,-5.91955 5.71538,-7.06789 5.12267,-14.62022 5.12267,-23.12433 1.28808,0.0553 2.65735,0.48956 3.81381,-0.32545 1.57578,-1.110524 1.1928,-3.234454 0.79289,-4.834526 -1.00133,-4.006361 -2.72308,-7.837371 -3.65115,-11.848829 1.08483,0.0224 2.2215,0.405246 3.24121,-0.13154 2.68594,-1.413881 0.65309,-7.305401 0.19864,-9.615077 -1.83716,-9.33695 -4.48295,-18.690323 -8.94017,-27.137639 -6.18366,-11.719283 -16.55699,-22.1686 -29.66394,-25.630873 -2.78724,-0.73626 -5.71027,-1.372706 -8.59996,-1.499242 -2.07391,-0.09081 -4.69411,0.483514 -6.68885,-0.105587 -1.24754,-0.368432 -2.36061,-1.550646 -3.43998,-2.25351 -2.75404,-1.793361 -7.47031,-4.79034 -10.89328,-4.669065 -1.61623,0.05726 -2.73294,1.416506 -2.63485,3.007326 0.15802,2.562548 1.8057,5.310386 2.41896,7.835515 0.22788,0.938322 0.75477,2.314446 -0.036,3.103627 -1.13832,1.136081 -2.8171,1.875035 -4.14367,2.772123 -2.44716,1.654881 -4.82826,3.452195 -6.87244,5.590858 -2.18275,2.28364 -3.39542,5.138908 -5.25892,7.644405 -2.41789,3.250879 -5.36519,6.024111 -8.31742,8.773967 -2.99487,2.789585 -6.07762,5.502208 -9.17329,8.180864 -1.71037,1.479972 -3.76321,2.830166 -4.90428,4.831725 -3.5312,6.194131 -0.36692,16.158173 4.71317,20.604504 1.41315,1.236851 2.53266,0.622765 4.01331,1.219797 1.96264,0.791374 3.01867,2.54511 5.35109,2.795732 3.47111,0.372982 6.67264,-0.596869 8.88323,-3.406808 0.97174,-1.235218 1.42043,-2.889713 2.60122,-3.950489 2.12543,-1.909421 5.89761,-2.951289 8.58211,-3.815577 1.57102,-0.505793 3.78106,0.9929 5.35109,1.332907 3.07781,0.666541 5.8992,0.258881 8.98217,0.126524 m -7.45329,-62.110793 c 4.64867,1.907182 8.96208,4.515257 12.40505,8.217735 1.77172,1.905258 2.93021,4.854926 4.98877,6.415604 1.89993,1.440418 5.40515,1.42754 7.64161,2.435033 5.04196,2.271334 9.48861,5.724789 13.13189,9.878157 15.59301,17.776146 15.49632,44.68115 10.67577,66.506332 -1.81938,8.23731 -5.74679,16.13734 -6.79886,24.4621 h -56.18638 c -0.92966,-4.05523 -1.79816,-7.84569 -1.28306,-12.03994 1.7507,-14.25534 14.6928,-24.460974 22.70951,-35.355382 2.30278,-3.129393 3.40799,-6.591981 5.24432,-9.91988 0.89354,-1.619304 3.53448,-2.666887 4.85488,-4.031895 2.97737,-3.077953 4.29886,-6.924196 4.83909,-11.083652 0.18442,-1.419842 0.45495,-3.41305 -0.0821,-4.777602 -0.70068,-1.78018 -2.88026,-1.931001 -3.49824,-0.0028 -1.06387,3.31943 -0.40406,6.643736 -2.06298,9.940386 -3.00906,5.979669 -9.99613,8.589796 -16.38814,7.560643 -2.1585,-0.34753 -4.55425,-1.949454 -6.68886,-1.872317 -1.93982,0.0701 -4.32261,1.461997 -6.11552,2.185531 -2.04721,0.826157 -4.16395,1.805165 -5.72563,3.404441 -2.39478,2.452412 -4.6377,8.680347 -9.36087,5.538368 -1.38039,-0.918272 -0.353,-2.060337 0.56286,-2.815784 1.52328,-1.256458 3.48334,-1.811125 4.95973,-2.996559 0.60534,-0.486045 1.1157,-1.238868 0.73568,-2.018612 -1.30717,-2.682144 -5.16127,0.07536 -6.65169,1.08001 -1.27761,0.861197 -2.46234,1.818147 -3.6311,2.819761 -0.46259,0.396439 -1.05404,1.135416 -1.71999,1.13516 -1.60253,-6.19e-4 -3.01795,-3.44599 -3.57211,-4.656245 -1.35552,-2.960388 -2.42137,-7.199232 -0.9784,-10.319947 1.13647,-2.457872 4.45312,-4.422502 6.46161,-6.169344 4.51775,-3.929201 9.13202,-7.921285 13.15416,-12.368339 3.65834,-4.044819 5.75438,-9.283598 9.97017,-12.788889 2.20291,-1.831643 4.64577,-3.384798 7.07108,-4.903251 1.0107,-0.632784 2.6175,-1.238402 3.32467,-2.218704 0.59683,-0.827347 0.22075,-2.106283 0.0681,-3.022373 -0.30116,-1.807661 -0.71586,-3.60935 -1.29073,-5.351083 -0.28209,-0.854689 -0.92016,-1.977682 -0.76429,-2.866652 m 62.49301,62.875234 c -2.11,-0.502096 -4.49187,0.784678 -4.11284,3.248872 0.71349,4.638667 3.48257,8.892174 4.11284,13.56882 -1.92543,-0.24865 -4.00628,-0.709501 -4.71936,1.71999 -0.41308,1.40739 -0.0364,3.150734 0.10028,4.586644 0.17801,1.87045 0.0756,3.85505 0.0296,5.73331 -0.16064,6.558 -3.58558,13.20928 -8.97938,17.0088 0.35174,-2.38171 1.37544,-4.74883 2.02111,-7.07108 1.06834,-3.84245 1.96763,-7.7326 2.67554,-11.65771 3.62357,-20.091463 3.2656,-43.654267 -8.98217,-60.96414 -4.21364,-5.955162 -9.57724,-11.012162 -15.97215,-14.550918 -1.71883,-0.951142 -3.64795,-1.719082 -5.54219,-2.237718 -1.07045,-0.29308 -2.64842,-0.343132 -3.56887,-0.972814 -1.24548,-0.85204 -2.77547,-3.39708 -3.3111,-4.789546 24.07291,0.199252 38.15164,22.258079 43.45352,43.190891 1.06696,4.212611 2.60813,8.830631 2.79513,13.186599 M 123.60657,42.393021 c -2.68534,0.365552 -6.64988,2.327125 -6.4687,5.652049 0.1392,2.554559 4.69741,3.458658 6.65981,3.213483 2.56861,-0.320924 2.88959,-2.428116 4.47545,-3.870867 0.7954,-0.723615 2.10776,-0.781925 1.93853,-2.209116 -0.29078,-2.452355 -4.72505,-3.041479 -6.60509,-2.785549 m 0.76444,3.740948 c -0.36521,1.285748 -1.55731,1.625404 -2.67555,0.955551 l 2.67555,-0.955551 M 94.95788,67.106977 c -2.19823,0.898651 -3.86408,8.467354 0.36364,6.736188 1.76672,-0.723428 2.34918,-3.254132 2.03999,-4.96709 -0.20154,-1.116532 -1.15436,-2.279803 -2.40363,-1.769098 m 16.99097,71.781173 c 1.67033,-0.34307 3.64834,-0.0658 5.35108,-0.0658 h 10.89328 34.20871 c 3.89666,0 8.39939,-0.63003 12.23105,0.063 1.91909,0.34709 2.4847,2.7509 1.10301,4.08823 -1.0361,1.00286 -3.03428,0.62656 -4.35188,0.62656 h -11.08439 -33.25316 -10.12884 c -1.62397,0 -3.59175,0.29686 -5.15924,-0.18019 -2.13576,-0.65001 -2.03315,-4.07509 0.19038,-4.5318 m 60.00858,8.5342 c 0.78639,4.23319 1.98862,7.33913 5.35108,10.26464 2.14755,1.86848 4.93176,3.09512 6.84472,5.21808 1.80566,2.00388 2.72993,5.52287 0.91559,7.83198 -1.4592,1.8571 -3.68016,1.91183 -5.84921,1.91183 h -11.08438 -48.73309 -12.61327 c -2.22063,-0.004 -4.59919,-0.55498 -5.72386,-2.67554 -1.71523,-3.23403 0.49066,-6.67356 3.04832,-8.61927 4.99558,-3.80033 9.97221,-7.1136 10.51106,-13.93172 h 57.33304 m -68.79965,29.29515 c 2.4775,-0.32197 5.14658,-0.0553 7.64441,-0.0553 h 15.0977 45.86643 8.98218 c 1.59512,0 3.55066,-0.0999 4.96871,0.76546 1.96674,1.20019 1.7558,2.9936 1.94369,4.96784 0.0961,1.01005 0.3928,2.18649 -0.4679,2.97489 -1.11579,1.02207 -4.06694,0.46509 -5.48895,0.46509 h -14.71548 -48.54198 -13.1866 c -1.52982,0 -4.1508,0.49912 -5.5214,-0.25186 -1.07778,-0.59054 -0.78523,-2.1622 -0.78523,-3.18812 0,-3.12245 0.7913,-5.23446 4.20442,-5.678 z"
       id="path1" /></g></svg>
