<?xml version="1.0" encoding="UTF-8" standalone="no"?>
<!-- Created with Inkscape (http://www.inkscape.org/) -->

<svg
   width="210mm"
   height="297mm"
   viewBox="0 0 210 297"
   version="1.1"
   id="svg1"
   xml:space="preserve"
   xmlns="http://www.w3.org/2000/svg"
   xmlns:svg="http://www.w3.org/2000/svg"><defs
     id="defs1" /><g
     id="layer1"><path
       style="fill:#0000ff;fill-opacity:1;stroke:none"
       d="m 52.439015,202.96426 c -7.22402,1.21378 -6.04672,9.06426 -6.04672,14.05016 0,1.91625 -0.54815,4.67654 0.88555,6.24569 2.11802,2.31811 8.65198,1.15912 11.611,1.15912 h 63.490575 19.95417 c 3.02837,0 6.72324,0.5422 9.67475,-0.10049 3.43932,-0.74892 2.82181,-4.39897 2.82181,-6.92459 0,-5.43136 1.07519,-12.49717 -6.04672,-14.42989 1.75767,-2.34402 4.20028,-3.82852 5.34796,-6.64535 4.02694,-9.88363 -10.67085,-15.42862 -13.19999,-23.54351 -1.07829,-3.45975 3.78467,-5.71775 2.68447,-9.30348 -0.56165,-1.83053 -2.67085,-3.38305 -3.81481,-4.93655 -1.8928,-2.57041 -3.4126,-5.49965 -4.75137,-8.35415 -5.63912,-12.02355 -8.23075,-27.01564 -6.36508,-40.06194 0.20044,-1.40159 0.23795,-3.90778 1.13999,-5.06898 1.07786,-1.38753 2.99254,-1.33819 3.73146,-3.28517 0.52771,-1.39049 -0.85606,-3.66901 -0.18337,-4.588888 2.02223,-2.765321 5.70974,-3.95943 7.57504,-6.992992 3.46398,-5.633525 2.39365,-12.539753 2.39365,-18.796836 0,-2.192835 0.60481,-5.311908 -0.13157,-7.39661 -0.52706,-1.492109 -2.59482,-1.147407 -3.89958,-1.147407 h -10.07787 c -1.19347,0 -2.98401,-0.308708 -3.95167,0.503674 -0.93837,0.787779 -0.68414,2.235434 -0.68414,3.293667 v 8.544016 h -8.66697 v -8.164282 c 0,-1.042669 0.23765,-2.484866 -0.5448,-3.342745 -1.17907,-1.292739 -4.86756,-0.644463 -6.50971,-0.644463 H 91.944255 c -1.54936,0 -4.97306,-0.600264 -6.16881,0.462071 -0.92607,0.822753 -0.68414,2.256108 -0.68414,3.33527 v 8.354149 h -8.66697 v -8.354149 c 0,-1.082534 0.24772,-2.525021 -0.66081,-3.360035 -0.97397,-0.895158 -2.73768,-0.627173 -3.97501,-0.627173 h -9.87631 c -1.30602,0 -3.19461,-0.235827 -3.82772,1.147546 -0.84408,1.844355 -0.20342,5.021951 -0.20342,7.016737 0,6.105493 -1.22583,13.496505 2.22009,18.986703 1.92653,3.069452 5.91196,4.431734 7.72745,7.404815 0.75546,1.237162 -0.61398,3.341822 0.16843,4.936532 0.77889,1.58753 2.41133,1.57302 3.44109,2.73754 0.5648,0.63872 0.56445,1.79117 0.70374,2.57874 2.46404,13.93207 -0.11095,29.98023 -6.08249,42.90995 -1.36888,2.96393 -3.00848,5.88505 -4.95853,8.54401 -1.09807,1.49727 -2.91374,2.7613 -3.46379,4.55681 -1.06841,3.48756 3.70516,5.69241 2.62039,9.11362 -2.67057,8.42264 -17.37126,13.66028 -12.96763,23.92325 1.11882,2.60749 3.49291,4.05069 5.1492,6.26561 M 74.005645,65.310669 v 7.784548 c 0,1.062556 -0.24987,2.464714 0.40498,3.397686 0.69798,0.994403 1.89475,0.96885 3.0215,0.969256 2.40745,8.81e-4 8.26151,1.021173 9.7267,-1.142134 0.62374,-0.920932 0.35117,-2.370047 0.35117,-3.414675 v -7.594681 h 26.000895 v 7.594681 c 0,1.04464 -0.27256,2.493732 0.35118,3.414675 1.47702,2.180794 7.49552,1.14597 9.92825,1.142134 1.07485,-0.0017 2.1522,-0.06137 2.81993,-0.984495 0.66222,-0.915497 0.40498,-2.3325 0.40498,-3.382447 v -7.784548 h 13.90746 c 0,5.299033 0.27238,10.676741 -0.17233,15.956305 -0.30012,3.56302 -0.51935,6.668593 -3.27297,9.485877 -1.52215,1.557341 -4.53488,4.473279 -6.63257,5.201713 -1.24604,0.432694 -3.11632,0.114564 -4.43426,0.114564 h -9.87631 -35.070975 -7.45763 c -1.10988,0 -2.56868,0.231702 -3.62803,-0.111783 -2.05425,-0.666064 -5.13754,-3.493222 -6.59089,-5.022101 -2.66695,-2.805557 -2.96422,-5.777803 -3.31964,-9.29601 -0.54303,-5.375333 -0.16733,-10.925536 -0.16733,-16.328565 h 13.70589 m 16.93082,33.091071 c 3.60406,-0.40058 7.4561,-0.0542 11.085655,-0.0542 h 21.96975 c 1.72282,0 4.69441,-0.535459 6.24455,0.22386 1.50702,0.738185 1.49113,2.79164 -0.005,3.53948 -1.10869,0.55419 -3.0004,0.22386 -4.22399,0.22386 -3.16845,0 -6.30475,0.18987 -9.4732,0.18987 H 82.672615 c -3.38238,0 -7.59109,0.64151 -10.88394,-0.0749 -1.48786,-0.3237 -2.35748,-2.07185 -1.40919,-3.299375 0.90489,-1.171345 4.07303,-0.612965 5.44018,-0.612965 4.97108,0 10.18152,0.41289 15.1168,-0.13566 m 36.280325,6.21139 c -0.46218,3.3713 -1.24442,6.65199 -1.40297,10.06296 -0.77592,16.69252 4.05994,32.80306 13.29485,46.89716 H 62.315325 c 2.00248,-3.31139 4.22532,-6.35997 5.873,-9.87309 4.42271,-9.42993 6.55812,-20.12936 7.0346,-30.37873 0.2541,-5.46578 0.37399,-11.18439 -1.21728,-16.51843 l 53.211145,-0.18987 m 14.10902,59.23852 c -0.0327,3.67128 -4.1114,5.753 -2.57422,9.68322 2.28056,5.83088 7.72345,9.09992 11.29234,14.05016 2.1683,3.00753 3.09065,6.67033 0.80561,9.87308 -1.15391,1.61735 -3.49771,4.13834 -5.49259,4.82212 -1.45985,0.50041 -3.69505,0.11443 -5.24049,0.11443 H 128.62769 72.393195 60.904425 c -1.48472,0 -3.63771,0.37201 -5.03894,-0.11457 -1.80937,-0.62831 -4.01372,-3.00835 -5.14406,-4.44224 -2.52538,-3.20354 -1.9351,-6.87576 0.30746,-10.06295 3.2094,-4.56127 8.32747,-7.63052 10.82096,-12.7211 1.48075,-3.02303 1.03855,-5.04413 -0.8053,-7.78454 -0.43436,-0.64558 -1.75484,-2.52301 -0.82458,-3.22247 0.99407,-0.74744 4.27293,-0.19514 5.52183,-0.19514 h 15.51992 60.064095 M 54.857705,204.728 c 4.55321,-0.55875 9.51554,-0.0549 14.10901,-0.0549 h 28.21803 32.652295 c 5.34886,0 11.00996,-0.5035 16.32614,0.033 6.96934,0.70329 6.24828,6.81169 6.24828,11.7388 0,1.35316 0.6625,4.73703 -0.81805,5.50087 -1.47003,0.7584 -4.57915,0.19514 -6.23646,0.19514 H 129.83704 73.400975 56.470165 c -1.77543,0 -5.27047,0.63235 -6.83102,-0.19514 -1.50605,-0.7986 -0.82816,-4.30673 -0.82816,-5.69074 0,-4.91773 -0.8521,-10.68036 6.04672,-11.52695 z"
       id="path1" /></g></svg>
