<?xml version="1.0" encoding="UTF-8"?>
<svg version="1.1" xmlns="http://www.w3.org/2000/svg" width="3439" height="2269">
<path d="M0 0 C5.65055488 -0.13702649 11.30164074 -0.23072737 16.95320765 -0.31482233 C20.79705094 -0.37487432 24.63736806 -0.4562144 28.47917973 -0.59662243 C45.03881097 -1.18948289 59.44867993 -0.16022094 75.08973982 5.67927237 C76.06994159 6.03721582 76.06994159 6.03721582 77.06994542 6.40239044 C87.39587919 10.27334715 94.72846383 15.97770139 102.79121848 23.31918217 C104.67666716 24.87353201 106.57087514 26.41740324 108.47871848 27.94418217 C112.87704634 31.52140396 117.08420702 35.26515759 121.27559348 39.08090092 C124.69616381 42.12435868 128.24843827 44.99006768 131.80684348 47.86996342 C135.17883211 50.63728917 138.48787294 53.47065157 141.79121848 56.31918217 C145.9157746 59.87385432 150.0633016 63.38710847 154.29121848 66.81918217 C159.13718638 70.75296787 163.87220376 74.80365977 168.59981223 78.87777592 C172.12439751 81.90876502 175.68170681 84.88910799 179.29121848 87.81918217 C184.6919802 92.2063112 189.96589549 96.73141629 195.24043723 101.26840092 C202.50152852 107.51345538 209.79675277 113.71549367 217.22871848 119.75668217 C222.64692427 124.16831272 227.94392699 128.7124186 233.24043723 133.26840092 C240.50152852 139.51345538 247.79675277 145.71549367 255.22871848 151.75668217 C260.09250873 155.71426405 264.8500308 159.78460664 269.59956809 163.87753178 C273.12420767 166.90863507 276.68161731 169.88903534 280.29121848 172.81918217 C285.6919802 177.2063112 290.96589549 181.73141629 296.24043723 186.26840092 C303.50152852 192.51345538 310.79675277 198.71549367 318.22871848 204.75668217 C323.64692427 209.16831272 328.94392699 213.7124186 334.24043723 218.26840092 C341.50152852 224.51345538 348.79675277 230.71549367 356.22871848 236.75668217 C361.64692427 241.16831272 366.94392699 245.7124186 372.24043723 250.26840092 C379.50152852 256.51345538 386.79675277 262.71549367 394.22871848 268.75668217 C399.09250873 272.71426405 403.8500308 276.78460664 408.59956809 280.87753178 C412.12420767 283.90863507 415.68161731 286.88903534 419.29121848 289.81918217 C424.6919802 294.2063112 429.96589549 298.73141629 435.24043723 303.26840092 C442.50152852 309.51345538 449.79675277 315.71549367 457.22871848 321.75668217 C462.64692427 326.16831272 467.94392699 330.7124186 473.24043723 335.26840092 C480.50152852 341.51345538 487.79675277 347.71549367 495.22871848 353.75668217 C500.64692427 358.16831272 505.94392699 362.7124186 511.24043723 367.26840092 C518.50152852 373.51345538 525.79675277 379.71549367 533.22871848 385.75668217 C538.09250873 389.71426405 542.8500308 393.78460664 547.59956809 397.87753178 C551.12420767 400.90863507 554.68161731 403.88903534 558.29121848 406.81918217 C563.6919802 411.2063112 568.96589549 415.73141629 574.24043723 420.26840092 C581.50152852 426.51345538 588.79675277 432.71549367 596.22871848 438.75668217 C601.64692427 443.16831272 606.94392699 447.7124186 612.24043723 452.26840092 C619.50152852 458.51345538 626.79675277 464.71549367 634.22871848 470.75668217 C639.64692427 475.16831272 644.94392699 479.7124186 650.24043723 484.26840092 C657.50152852 490.51345538 664.79675277 496.71549367 672.22871848 502.75668217 C677.09250873 506.71426405 681.8500308 510.78460664 686.59956809 514.87753178 C690.12420767 517.90863507 693.68161731 520.88903534 697.29121848 523.81918217 C702.6919802 528.2063112 707.96589549 532.73141629 713.24043723 537.26840092 C720.50152852 543.51345538 727.79675277 549.71549367 735.22871848 555.75668217 C740.64692427 560.16831272 745.94392699 564.7124186 751.24043723 569.26840092 C756.72739021 573.98757038 762.24719841 578.66722315 767.79121848 583.31918217 C768.30909934 583.75456303 768.8269802 584.18994389 769.36055442 584.63851811 C770.85429698 585.89100004 772.35390377 587.13647791 773.85371848 588.38168217 C774.71094505 589.09453374 775.56817161 589.8073853 776.45137473 590.54183842 C778.52316596 592.11556966 780.47656747 593.17183361 782.79121848 594.31918217 C784.16195634 595.95522413 785.49177104 597.62596278 786.79121848 599.31918217 C787.57496848 600.06168217 788.35871848 600.80418217 789.16621848 601.56918217 C804.99342002 618.15005997 811.38655707 642.07285398 810.93391868 664.31213261 C810.76346637 673.78215111 810.75446953 683.24972087 810.76192161 692.72103764 C810.76228699 693.66674178 810.76265237 694.61244591 810.76302882 695.58680774 C810.77386283 722.07507424 810.87996184 748.56316942 810.97620841 775.05123212 C811.03648574 791.64290019 811.09338985 808.23458001 811.14961692 824.82626225 C811.15407635 826.13902054 811.15407635 826.13902054 811.15862587 827.4782992 C811.25255571 855.15817544 811.33283758 882.83806823 811.40222373 910.51801661 C811.40940276 913.38070962 811.41661816 916.24340255 811.42384263 919.10609545 C811.4681933 936.69317888 811.51201441 954.28026356 811.5542266 971.86735226 C811.58327366 983.94195602 811.61335926 996.01655689 811.64473411 1008.09115483 C811.64734526 1009.09657233 811.64995641 1010.10198982 811.65264668 1011.13787452 C811.74216346 1045.36784663 811.88285561 1079.59743637 812.0457637 1113.82713057 C812.15424112 1136.63865021 812.25643463 1159.45013596 812.32686301 1182.26180913 C812.32997674 1183.27015515 812.33309047 1184.27850116 812.33629855 1185.31740312 C812.36717639 1195.40439087 812.39608094 1205.49138282 812.42247381 1215.5783833 C812.43552838 1220.55177816 812.44904212 1225.52517167 812.46284934 1230.4985645 C812.46555874 1231.47772146 812.46826814 1232.45687842 812.47105964 1233.46570681 C812.51563053 1249.1689445 812.59855471 1264.87175389 812.69629049 1280.5747409 C812.79393305 1296.38915679 812.85094151 1312.20331592 812.86766478 1328.01802762 C812.8788386 1337.40875267 812.92054091 1346.79814388 813.00751015 1356.18847919 C813.06281121 1362.49393267 813.07675689 1368.79866315 813.05919667 1375.10433087 C813.05036162 1378.68371301 813.05756593 1382.26070045 813.11594554 1385.83967115 C813.32654428 1401.10003387 811.93159662 1414.39160774 806.64967796 1428.67005803 C806.41872404 1429.29835937 806.18777012 1429.92666071 805.94981759 1430.57400148 C802.95597417 1438.53232528 799.31511488 1444.88945803 793.79121848 1451.31918217 C792.73958397 1452.7075211 791.69650953 1454.10243131 790.66621848 1455.50668217 C789.70801588 1456.77761408 788.74969369 1458.04845584 787.79121848 1459.31918217 C787.06934348 1460.28855717 786.34746848 1461.25793217 785.60371848 1462.25668217 C782.49432656 1465.92694543 778.68637345 1468.7780582 774.94356223 1471.77230717 C771.53541165 1474.50398987 768.22414273 1477.34253913 764.91621848 1480.19418217 C763.72491872 1481.21904555 762.53351213 1482.24378477 761.34199973 1483.26840092 C760.75241477 1483.77548588 760.16282981 1484.28257085 759.55537864 1484.80502202 C752.88388925 1490.53109137 746.17613533 1496.21097491 739.35371848 1501.75668217 C733.93551269 1506.16831272 728.63850998 1510.7124186 723.34199973 1515.26840092 C716.08090845 1521.51345538 708.7856842 1527.71549367 701.35371848 1533.75668217 C695.93551269 1538.16831272 690.63850998 1542.7124186 685.34199973 1547.26840092 C678.08090845 1553.51345538 670.7856842 1559.71549367 663.35371848 1565.75668217 C658.48992823 1569.71426405 653.73240617 1573.78460664 648.98286887 1577.87753178 C645.4582293 1580.90863507 641.90081966 1583.88903534 638.29121848 1586.81918217 C632.89045676 1591.2063112 627.61654148 1595.73141629 622.34199973 1600.26840092 C615.08090845 1606.51345538 607.7856842 1612.71549367 600.35371848 1618.75668217 C594.93551269 1623.16831272 589.63850998 1627.7124186 584.34199973 1632.26840092 C577.08090845 1638.51345538 569.7856842 1644.71549367 562.35371848 1650.75668217 C556.93551269 1655.16831272 551.63850998 1659.7124186 546.34199973 1664.26840092 C539.08090845 1670.51345538 531.7856842 1676.71549367 524.35371848 1682.75668217 C519.48992823 1686.71426405 514.73240617 1690.78460664 509.98286887 1694.87753178 C506.4582293 1697.90863507 502.90081966 1700.88903534 499.29121848 1703.81918217 C493.89045676 1708.2063112 488.61654148 1712.73141629 483.34199973 1717.26840092 C476.08090845 1723.51345538 468.7856842 1729.71549367 461.35371848 1735.75668217 C455.93551269 1740.16831272 450.63850998 1744.7124186 445.34199973 1749.26840092 C438.08090845 1755.51345538 430.7856842 1761.71549367 423.35371848 1767.75668217 C417.93551269 1772.16831272 412.63850998 1776.7124186 407.34199973 1781.26840092 C400.08090845 1787.51345538 392.7856842 1793.71549367 385.35371848 1799.75668217 C379.93551269 1804.16831272 374.63850998 1808.7124186 369.34199973 1813.26840092 C362.08090845 1819.51345538 354.7856842 1825.71549367 347.35371848 1831.75668217 C342.48992823 1835.71426405 337.73240617 1839.78460664 332.98286887 1843.87753178 C329.4582293 1846.90863507 325.90081966 1849.88903534 322.29121848 1852.81918217 C316.89045676 1857.2063112 311.61654148 1861.73141629 306.34199973 1866.26840092 C299.08090845 1872.51345538 291.7856842 1878.71549367 284.35371848 1884.75668217 C278.93551269 1889.16831272 273.63850998 1893.7124186 268.34199973 1898.26840092 C261.08090845 1904.51345538 253.7856842 1910.71549367 246.35371848 1916.75668217 C240.93551269 1921.16831272 235.63850998 1925.7124186 230.34199973 1930.26840092 C223.08090845 1936.51345538 215.7856842 1942.71549367 208.35371848 1948.75668217 C203.48992823 1952.71426405 198.73240617 1956.78460664 193.98286887 1960.87753178 C190.4582293 1963.90863507 186.90081966 1966.88903534 183.29121848 1969.81918217 C177.89045676 1974.2063112 172.61654148 1978.73141629 167.34199973 1983.26840092 C160.08090845 1989.51345538 152.7856842 1995.71549367 145.35371848 2001.75668217 C139.93551269 2006.16831272 134.63850998 2010.7124186 129.34199973 2015.26840092 C121.13371693 2022.3281074 112.86756029 2029.31390169 104.46309348 2036.13949467 C102.67159538 2037.60097997 100.89037709 2039.07515142 99.11934348 2040.56136967 C68.93381598 2065.77413686 39.41818892 2067.83684493 1.3959433 2067.67539957 C-4.72985803 2067.66062105 -10.85531338 2067.70428203 -16.98098979 2067.74010487 C-27.69806205 2067.79492076 -38.41456203 2067.8136841 -49.13173417 2067.80728032 C-60.62472177 2067.80061033 -72.11737596 2067.81600839 -83.61029366 2067.85757138 C-84.34004164 2067.86019758 -85.06978962 2067.86282379 -85.82165118 2067.86552958 C-89.54459713 2067.87902714 -93.26754168 2067.8928763 -96.99048587 2067.90684895 C-123.91720038 2068.00718708 -150.84383634 2068.05965624 -177.77071503 2068.08670117 C-204.63171854 2068.11383076 -231.49255468 2068.16219545 -258.35346726 2068.23774411 C-259.19385635 2068.24009847 -260.03424544 2068.24245284 -260.90010086 2068.24487855 C-268.5829273 2068.26641336 -276.265753 2068.28820269 -283.94857785 2068.31029566 C-303.06943916 2068.36527752 -322.19030836 2068.41708854 -341.3111842 2068.4667566 C-342.18241958 2068.46902228 -343.05365495 2068.47128796 -343.9512914 2068.4736223 C-386.35421551 2068.58361735 -428.75719236 2068.65718525 -471.16019753 2068.72762944 C-485.84269317 2068.75204457 -500.52518854 2068.77660587 -515.20768288 2068.80178715 C-516.57076596 2068.80412437 -516.57076596 2068.80412437 -517.96138606 2068.8065088 C-559.59244065 2068.87809348 -601.2234264 2068.97419323 -642.85441323 2069.07742269 C-645.53690491 2069.08407414 -648.21939661 2069.09071495 -650.90188832 2069.09735386 C-669.60488023 2069.14366281 -688.30787078 2069.19051142 -707.01086063 2069.23764492 C-742.18851917 2069.32628758 -777.36618406 2069.41231646 -812.54385205 2069.49711907 C-815.15379394 2069.50341195 -817.76373581 2069.50971132 -820.37367768 2069.5160113 C-873.59334921 2069.64441239 -926.81303738 2069.76155764 -980.03275613 2069.86859013 C-980.86490015 2069.87026408 -981.69704418 2069.87193802 -982.55440469 2069.8736627 C-1005.62683933 2069.92005871 -1028.69927527 2069.96578834 -1051.77171149 2070.01138808 C-1079.13403674 2070.06547265 -1106.49636139 2070.11984959 -1133.85868386 2070.17532231 C-1134.60153913 2070.17682829 -1135.3443944 2070.17833428 -1136.10976044 2070.1798859 C-1218.6885413 2070.34741188 -1301.26717806 2070.56175549 -1383.84573673 2070.81632747 C-1394.36508399 2070.84873738 -1404.8844334 2070.88029657 -1415.40378536 2070.91114012 C-1505.8107295 2071.17640684 -1596.21543029 2071.63660241 -1686.62017875 2072.32711586 C-1688.40707301 2072.34071463 -1690.19396887 2072.35410536 -1691.98086636 2072.36727313 C-1696.34981911 2072.39996102 -1700.71863787 2072.43766998 -1705.08746544 2072.48430909 C-1705.95294758 2072.49294756 -1706.81842973 2072.50158602 -1707.7101386 2072.51048625 C-1709.32534475 2072.52678518 -1710.94053689 2072.544585 -1712.55570483 2072.56431079 C-1736.6454718 2072.79921927 -1758.77225131 2067.80004536 -1777.20878152 2051.31918217 C-1778.49771401 2050.25280082 -1779.79072253 2049.19127866 -1781.09159402 2048.13949467 C-1782.17292713 2047.24178416 -1783.25368288 2046.34337759 -1784.33378152 2045.44418217 C-1784.89581277 2044.98527592 -1785.45784402 2044.52636967 -1786.03690652 2044.05355717 C-1788.67527365 2041.84854503 -1790.09942512 2040.64725137 -1791.20878152 2037.31918217 C-1793.31451717 2035.34301684 -1793.31451717 2035.34301684 -1795.95878152 2033.31918217 C-1796.95651589 2032.52254155 -1797.95425027 2031.72590092 -1798.98221902 2030.90511967 C-1799.51170144 2030.48327397 -1800.04118386 2030.06142827 -1800.5867112 2029.62679936 C-1803.2919641 2027.44598441 -1805.93701863 2025.19533209 -1808.58378152 2022.94418217 C-1809.1253489 2022.48479253 -1809.66691628 2022.02540288 -1810.2248948 2021.55209233 C-1812.44268155 2019.67047261 -1814.65867216 2017.78674288 -1816.87479714 2015.90316655 C-1822.42946185 2011.18398607 -1827.98938077 2006.47843168 -1833.64628152 2001.88168217 C-1839.06448731 1997.47005163 -1844.36149002 1992.92594575 -1849.65800027 1988.36996342 C-1856.91909155 1982.12490896 -1864.2143158 1975.92287068 -1871.64628152 1969.88168217 C-1877.06448731 1965.47005163 -1882.36149002 1960.92594575 -1887.65800027 1956.36996342 C-1894.91909155 1950.12490896 -1902.2143158 1943.92287068 -1909.64628152 1937.88168217 C-1915.06448731 1933.47005163 -1920.36149002 1928.92594575 -1925.65800027 1924.36996342 C-1932.91909155 1918.12490896 -1940.2143158 1911.92287068 -1947.64628152 1905.88168217 C-1952.51007177 1901.9241003 -1957.26759383 1897.85375771 -1962.01713113 1893.76083256 C-1965.5417707 1890.72972928 -1969.09918034 1887.74932901 -1972.70878152 1884.81918217 C-1978.10954324 1880.43205315 -1983.38345852 1875.90694806 -1988.65800027 1871.36996342 C-1995.91909155 1865.12490896 -2003.2143158 1858.92287068 -2010.64628152 1852.88168217 C-2016.06448731 1848.47005163 -2021.36149002 1843.92594575 -2026.65800027 1839.36996342 C-2033.91909155 1833.12490896 -2041.2143158 1826.92287068 -2048.64628152 1820.88168217 C-2054.06448731 1816.47005163 -2059.36149002 1811.92594575 -2064.65800027 1807.36996342 C-2071.91909155 1801.12490896 -2079.2143158 1794.92287068 -2086.64628152 1788.88168217 C-2091.51007177 1784.9241003 -2096.26759383 1780.85375771 -2101.01713113 1776.76083256 C-2104.5417707 1773.72972928 -2108.09918034 1770.74932901 -2111.70878152 1767.81918217 C-2117.10954324 1763.43205315 -2122.38345852 1758.90694806 -2127.65800027 1754.36996342 C-2134.91909155 1748.12490896 -2142.2143158 1741.92287068 -2149.64628152 1735.88168217 C-2155.06448731 1731.47005163 -2160.36149002 1726.92594575 -2165.65800027 1722.36996342 C-2172.91909155 1716.12490896 -2180.2143158 1709.92287068 -2187.64628152 1703.88168217 C-2193.06448731 1699.47005163 -2198.36149002 1694.92594575 -2203.65800027 1690.36996342 C-2210.91909155 1684.12490896 -2218.2143158 1677.92287068 -2225.64628152 1671.88168217 C-2230.51007177 1667.9241003 -2235.26759383 1663.85375771 -2240.01713113 1659.76083256 C-2243.5417707 1656.72972928 -2247.09918034 1653.74932901 -2250.70878152 1650.81918217 C-2256.10954324 1646.43205315 -2261.38345852 1641.90694806 -2266.65800027 1637.36996342 C-2273.91909155 1631.12490896 -2281.2143158 1624.92287068 -2288.64628152 1618.88168217 C-2294.06448731 1614.47005163 -2299.36149002 1609.92594575 -2304.65800027 1605.36996342 C-2311.91909155 1599.12490896 -2319.2143158 1592.92287068 -2326.64628152 1586.88168217 C-2332.06448731 1582.47005163 -2337.36149002 1577.92594575 -2342.65800027 1573.36996342 C-2349.91909155 1567.12490896 -2357.2143158 1560.92287068 -2364.64628152 1554.88168217 C-2369.51007177 1550.9241003 -2374.26759383 1546.85375771 -2379.01713113 1542.76083256 C-2382.5417707 1539.72972928 -2386.09918034 1536.74932901 -2389.70878152 1533.81918217 C-2395.10954324 1529.43205315 -2400.38345852 1524.90694806 -2405.65800027 1520.36996342 C-2412.91909155 1514.12490896 -2420.2143158 1507.92287068 -2427.64628152 1501.88168217 C-2432.47940173 1497.94774711 -2437.21837833 1493.91396605 -2441.93143777 1489.83773686 C-2444.7606787 1487.3955734 -2447.60296413 1484.98265925 -2450.52128152 1482.64730717 C-2456.65318504 1477.7274363 -2461.71790484 1472.7864838 -2466.20878152 1466.31918217 C-2467.36313699 1464.90185795 -2467.36313699 1464.90185795 -2468.54081277 1463.45590092 C-2472.14237665 1458.40803442 -2474.09715377 1452.55935725 -2476.23075417 1446.78549077 C-2476.9589173 1444.81881544 -2477.70559495 1442.85992723 -2478.45487527 1440.90121342 C-2482.20966824 1430.91852016 -2483.35722215 1422.60558543 -2483.36306409 1412.01134659 C-2483.36985997 1410.30487279 -2483.36985997 1410.30487279 -2483.37679315 1408.56392478 C-2483.39083783 1404.73520737 -2483.3978717 1400.90650901 -2483.40496377 1397.07777287 C-2483.41311418 1394.3103822 -2483.42274255 1391.54299711 -2483.43230174 1388.775611 C-2483.45233524 1382.74835653 -2483.468726 1376.72110066 -2483.48273782 1370.69382931 C-2483.50359917 1361.72668079 -2483.53007351 1352.75955497 -2483.55768733 1343.79242501 C-2483.60404438 1328.68520602 -2483.64579292 1313.57797754 -2483.68490342 1298.47073819 C-2483.72379277 1283.45209682 -2483.76461583 1268.43346282 -2483.80802277 1253.4148338 C-2483.81072673 1252.47872866 -2483.81343068 1251.54262352 -2483.81621657 1250.57815156 C-2483.82720317 1246.77686327 -2483.8382043 1242.97557502 -2483.84922431 1239.17428683 C-2483.94982168 1204.47332853 -2484.04573876 1169.77235893 -2484.13871316 1135.07137944 C-2484.22595827 1102.51017288 -2484.31590624 1069.94897544 -2484.40922097 1037.38778569 C-2484.41207756 1036.39075377 -2484.41493414 1035.39372185 -2484.41787729 1034.36647685 C-2484.4322707 1029.34292235 -2484.44666852 1024.31936787 -2484.46106762 1019.29581339 C-2484.46391078 1018.3038628 -2484.46675394 1017.31191221 -2484.46968325 1016.28990252 C-2484.4754185 1014.28909452 -2484.48115472 1012.28828653 -2484.48689189 1010.28747854 C-2484.57925655 978.07074004 -2484.66948362 945.85399553 -2484.75921431 913.6372496 C-2484.78788443 903.34492122 -2484.81667634 893.05259319 -2484.84567398 882.76026572 C-2484.86624343 875.45564832 -2484.88659701 868.15103032 -2484.90689023 860.84641214 C-2484.92179051 855.49649657 -2484.93706386 850.14658221 -2484.95260899 844.79666848 C-2485.00162582 827.87241427 -2485.04500085 810.94821166 -2485.06306681 794.02389309 C-2485.06998404 787.71050039 -2485.0785696 781.39710984 -2485.08779358 775.08372013 C-2485.09001546 773.5533843 -2485.09216015 772.02304836 -2485.09422626 770.49271231 C-2485.12075022 751.3069646 -2485.26082095 732.12997608 -2485.599598 712.94666536 C-2485.70565552 706.62361827 -2485.78216957 700.30013849 -2485.8575102 693.97665908 C-2485.91605029 689.35274176 -2485.99560838 684.73183582 -2486.1371874 680.10965933 C-2486.91309816 654.533925 -2484.24065981 627.80633577 -2466.70878152 607.50668217 C-2459.44951105 599.80714046 -2459.44951105 599.80714046 -2455.29056863 598.90145756 C-2452.93121672 598.24154736 -2451.80958607 597.38862595 -2449.99393777 595.76449467 C-2449.39677956 595.23759038 -2448.79962136 594.71068608 -2448.18436745 594.16781499 C-2447.55304909 593.59901616 -2446.92173074 593.03021733 -2446.27128152 592.44418217 C-2444.92420507 591.25342177 -2443.57653845 590.06332871 -2442.22831277 588.87386967 C-2441.55364968 588.27542241 -2440.87898659 587.67697514 -2440.18387917 587.06039311 C-2437.30775523 584.52485343 -2434.3892434 582.04153765 -2431.45878152 579.56918217 C-2430.92510964 579.11809086 -2430.39143777 578.66699956 -2429.84159402 578.20223881 C-2426.51150835 575.3952916 -2423.15035484 572.62933742 -2419.77128152 569.88168217 C-2414.35307573 565.47005163 -2409.05607301 560.92594575 -2403.75956277 556.36996342 C-2396.49847148 550.12490896 -2389.20324723 543.92287068 -2381.77128152 537.88168217 C-2376.35307573 533.47005163 -2371.05607301 528.92594575 -2365.75956277 524.36996342 C-2358.49847148 518.12490896 -2351.20324723 511.92287068 -2343.77128152 505.88168217 C-2338.90749127 501.9241003 -2334.1499692 497.85375771 -2329.40043191 493.76083256 C-2325.87579233 490.72972928 -2322.31838269 487.74932901 -2318.70878152 484.81918217 C-2313.3080198 480.43205315 -2308.03410451 475.90694806 -2302.75956277 471.36996342 C-2295.49847148 465.12490896 -2288.20324723 458.92287068 -2280.77128152 452.88168217 C-2275.35307573 448.47005163 -2270.05607301 443.92594575 -2264.75956277 439.36996342 C-2257.49847148 433.12490896 -2250.20324723 426.92287068 -2242.77128152 420.88168217 C-2237.35307573 416.47005163 -2232.05607301 411.92594575 -2226.75956277 407.36996342 C-2219.49847148 401.12490896 -2212.20324723 394.92287068 -2204.77128152 388.88168217 C-2199.35307573 384.47005163 -2194.05607301 379.92594575 -2188.75956277 375.36996342 C-2181.49847148 369.12490896 -2174.20324723 362.92287068 -2166.77128152 356.88168217 C-2161.90749127 352.9241003 -2157.1499692 348.85375771 -2152.40043191 344.76083256 C-2148.87579233 341.72972928 -2145.31838269 338.74932901 -2141.70878152 335.81918217 C-2136.3080198 331.43205315 -2131.03410451 326.90694806 -2125.75956277 322.36996342 C-2118.49847148 316.12490896 -2111.20324723 309.92287068 -2103.77128152 303.88168217 C-2098.35307573 299.47005163 -2093.05607301 294.92594575 -2087.75956277 290.36996342 C-2080.49847148 284.12490896 -2073.20324723 277.92287068 -2065.77128152 271.88168217 C-2060.35307573 267.47005163 -2055.05607301 262.92594575 -2049.75956277 258.36996342 C-2042.49847148 252.12490896 -2035.20324723 245.92287068 -2027.77128152 239.88168217 C-2022.90749127 235.9241003 -2018.1499692 231.85375771 -2013.40043191 227.76083256 C-2009.87579233 224.72972928 -2006.31838269 221.74932901 -2002.70878152 218.81918217 C-1997.3080198 214.43205315 -1992.03410451 209.90694806 -1986.75956277 205.36996342 C-1979.49847148 199.12490896 -1972.20324723 192.92287068 -1964.77128152 186.88168217 C-1959.35307573 182.47005163 -1954.05607301 177.92594575 -1948.75956277 173.36996342 C-1941.49847148 167.12490896 -1934.20324723 160.92287068 -1926.77128152 154.88168217 C-1921.35307573 150.47005163 -1916.05607301 145.92594575 -1910.75956277 141.36996342 C-1903.49847148 135.12490896 -1896.20324723 128.92287068 -1888.77128152 122.88168217 C-1883.90749127 118.9241003 -1879.1499692 114.85375771 -1874.40043191 110.76083256 C-1870.87579233 107.72972928 -1867.31838269 104.74932901 -1863.70878152 101.81918217 C-1858.3080198 97.43205315 -1853.03410451 92.90694806 -1847.75956277 88.36996342 C-1840.49847148 82.12490896 -1833.20324723 75.92287068 -1825.77128152 69.88168217 C-1820.35307573 65.47005163 -1815.05607301 60.92594575 -1809.75956277 56.36996342 C-1802.4191485 50.05668556 -1795.0435528 43.79018011 -1787.52128152 37.69418217 C-1783.13330608 34.12895213 -1778.93065128 30.40729573 -1774.79081277 26.55746342 C-1773.5127073 25.4495142 -1773.5127073 25.4495142 -1772.20878152 24.31918217 C-1771.43667336 23.62635136 -1771.43667336 23.62635136 -1770.64896706 22.91952397 C-1764.36573123 17.70448048 -1756.9738898 15.23835167 -1749.39628152 12.50668217 C-1748.06054833 12.0137504 -1746.72525768 11.51961772 -1745.39042214 11.0242603 C-1732.33900015 6.19763606 -1732.33900015 6.19763606 -1727.56927078 6.16481628 C-1726.60985869 6.15585615 -1725.65044661 6.14689602 -1724.66196142 6.13766437 C-1723.60465676 6.13280703 -1722.5473521 6.12794968 -1721.45800791 6.12294515 C-1720.33495147 6.11395327 -1719.21189503 6.1049614 -1718.05480658 6.09569705 C-1714.264553 6.06665541 -1710.47429213 6.04475553 -1706.68399075 6.02290322 C-1703.97042892 6.00435778 -1701.2568776 5.98442329 -1698.54332468 5.9646214 C-1691.88000632 5.91699399 -1685.21666297 5.87507691 -1678.55329414 5.83520323 C-1673.0308199 5.80208035 -1667.50836217 5.76688244 -1661.98590876 5.73045775 C-1590.65341038 5.26126521 -1519.32018013 5.01309974 -1447.98654148 4.79684252 C-1434.91857204 4.75717494 -1421.85060773 4.71603951 -1408.7826455 4.67406727 C-1407.82395779 4.67098888 -1406.86527008 4.66791048 -1405.87753123 4.6647388 C-1400.98401946 4.64902021 -1396.09050775 4.63328265 -1391.19699606 4.61753882 C-1356.28052839 4.50524398 -1321.36405289 4.39558008 -1286.44757203 4.2874725 C-1251.9462572 4.1806452 -1217.44494607 4.0727262 -1182.94363908 3.9633949 C-1180.7556314 3.95646254 -1178.56762372 3.94953023 -1176.37961604 3.94259794 C-1167.58248496 3.91472376 -1158.7853539 3.88684092 -1149.98822288 3.85894769 C-1125.42004888 3.78105065 -1100.85187431 3.70333619 -1076.28369931 3.62575509 C-1074.60743393 3.62046165 -1074.60743393 3.62046165 -1072.89730461 3.61506128 C-1017.68596196 3.44072908 -962.47461234 3.26864091 -907.26326246 3.09661801 C-833.39621915 2.86646602 -759.52918202 2.63443642 -685.66215066 2.400481 C-683.32154417 2.39306807 -680.98093768 2.38565519 -678.64033119 2.37824236 C-673.96438626 2.3634333 -669.28844133 2.34862402 -664.6124964 2.33381452 C-654.12463588 2.30059776 -643.63677535 2.26738177 -633.14891482 2.23416817 C-630.82527625 2.22680945 -628.50163769 2.21945053 -626.17799913 2.21209142 C-563.9565377 2.01503346 -501.73507266 1.81912727 -439.51360617 1.62367661 C-437.88228797 1.61855226 -437.88228797 1.61855226 -436.21801385 1.61332439 C-426.38139574 1.58242572 -416.54477763 1.55152852 -406.70815948 1.5206408 C-382.90809673 1.44590582 -359.10803433 1.3710653 -335.30797294 1.29589607 C-333.70810552 1.29084339 -333.70810552 1.29084339 -332.07591753 1.28568864 C-327.77936369 1.27211928 -323.48280984 1.25854944 -319.186256 1.24497952 C-279.17076011 1.11860017 -239.15526193 0.9929904 -199.13975912 0.86882002 C-195.28258749 0.85684815 -191.42541587 0.84487323 -187.56824425 0.83289601 C-186.14861484 0.82848841 -186.14861484 0.82848841 -184.70030604 0.82399177 C-169.87316771 0.77793834 -155.0460318 0.73114809 -140.2188968 0.684034 C-125.54944496 0.63743817 -110.87999067 0.59168595 -96.21053362 0.54676026 C-89.14138849 0.52509216 -82.0722438 0.50335337 -75.00310259 0.48043574 C-73.53539818 0.47568329 -72.06769365 0.47096568 -70.59998901 0.4662838 C-67.01728898 0.45485415 -63.43459119 0.44303393 -59.85189522 0.43039322 C-52.94920928 0.40679194 -46.04671432 0.39256688 -39.14398702 0.39780314 C-36.42584998 0.39873779 -33.70771495 0.39858755 -30.98957793 0.39768185 C-30.31689693 0.39756589 -29.64421594 0.39744992 -28.95115068 0.39733045 C-19.29648494 0.39028707 -9.65163796 0.23691166 0 0 Z M37.29777941 16.33186291 C35.32441168 16.33776805 33.35104448 16.34385404 31.37767776 16.35009165 C29.72428495 16.35511351 29.72428495 16.35511351 28.03749027 16.36023682 C24.34645204 16.37148919 20.65541461 16.38298284 16.96437713 16.39447571 C14.27863652 16.40271448 11.59289588 16.41093988 8.90715518 16.41914927 C3.05014385 16.4370796 -2.80686707 16.45513681 -8.66387775 16.47327752 C-17.43445446 16.50044227 -26.20503175 16.52741551 -34.97560915 16.55435419 C-50.8583349 16.60314487 -66.74106001 16.65213737 -82.62378489 16.70120902 C-96.85509564 16.7451776 -111.08640663 16.78906923 -125.31771783 16.83289601 C-129.20587428 16.84487056 -133.09403072 16.85684526 -136.98218717 16.86882002 C-138.43705513 16.8733007 -138.43705513 16.8733007 -139.92131435 16.8778719 C-247.41565096 17.20894381 -354.90998074 17.54222486 -563.56532295 18.19004114 C-584.94217444 18.25649418 -606.31902598 18.32293176 -627.69587755 18.38935979 C-631.2757127 18.40048415 -634.85554784 18.41160902 -638.43538299 18.42273389 C-713.47836551 18.65593479 -788.5213526 18.88762504 -863.5643426 19.11840367 C-918.32715238 19.28681559 -973.08996135 19.45547601 -1027.85276536 19.62575509 C-1028.98682745 19.62928122 -1030.12088955 19.63280735 -1031.28931716 19.63644034 C-1056.22709069 19.71398377 -1081.16486383 19.79165439 -1106.10263659 19.86944379 C-1116.14725612 19.9007743 -1126.19187569 19.93208741 -1136.23649529 19.9633949 C-1137.33558421 19.96682103 -1138.43467313 19.97024716 -1139.56706778 19.97377712 C-1174.55577967 20.08283731 -1209.54449575 20.19047338 -1244.53321448 20.29731284 C-1279.9816549 20.40556354 -1315.43009026 20.51534588 -1350.87851997 20.62704968 C-1355.85663766 20.64273623 -1360.83475539 20.65840664 -1365.81287316 20.67406727 C-1366.78811577 20.67713588 -1367.76335838 20.68020449 -1368.7681538 20.68336608 C-1381.97304441 20.72487935 -1395.17793767 20.76539775 -1408.38283421 20.80497855 C-1413.74469084 20.82107302 -1419.10654705 20.83730528 -1424.46840326 20.8535386 C-1428.86558642 20.86684023 -1433.2627698 20.88005085 -1437.65995381 20.89306714 C-1455.55502388 20.94613014 -1473.45003135 21.0041336 -1491.34499492 21.08612787 C-1498.01435567 21.11660643 -1504.68372154 21.14595063 -1511.35308814 21.17512006 C-1513.02171311 21.18244898 -1514.69033777 21.18984853 -1516.35896212 21.19731911 C-1539.16940281 21.29918472 -1561.97844977 21.32253305 -1584.78905995 21.26559541 C-1600.8361535 21.22595626 -1616.8830727 21.2186989 -1632.93020818 21.23242216 C-1643.46962597 21.23979139 -1654.00808133 21.21700829 -1664.54731215 21.15327719 C-1671.70482887 21.11265621 -1678.86179573 21.1090195 -1686.01938459 21.13296965 C-1690.13708012 21.1455622 -1694.25305201 21.1425881 -1698.37051938 21.09411251 C-1729.03273322 20.75345466 -1750.54598192 27.00823726 -1773.69315652 48.08090092 C-1777.11372684 51.12435868 -1780.6660013 53.99006768 -1784.22440652 56.86996342 C-1787.59639515 59.63728917 -1790.90543597 62.47065157 -1794.20878152 65.31918217 C-1799.19803846 69.61908068 -1804.25099886 73.82404096 -1809.36503152 77.97543217 C-1812.68564637 80.71220266 -1815.94924934 83.51021168 -1819.20878152 86.31918217 C-1824.19818919 90.6189093 -1829.25099307 94.82403626 -1834.36503152 98.97543217 C-1837.68564637 101.71220266 -1840.94924934 104.51021168 -1844.20878152 107.31918217 C-1848.33346356 110.87371378 -1852.48085863 114.3871036 -1856.70878152 117.81918217 C-1862.10954324 122.2063112 -1867.38345852 126.73141629 -1872.65800027 131.26840092 C-1879.91909155 137.51345538 -1887.2143158 143.71549367 -1894.64628152 149.75668217 C-1900.06448731 154.16831272 -1905.36149002 158.7124186 -1910.65800027 163.26840092 C-1917.91909155 169.51345538 -1925.2143158 175.71549367 -1932.64628152 181.75668217 C-1938.06448731 186.16831272 -1943.36149002 190.7124186 -1948.65800027 195.26840092 C-1955.91909155 201.51345538 -1963.2143158 207.71549367 -1970.64628152 213.75668217 C-1975.51007177 217.71426405 -1980.26759383 221.78460664 -1985.01713113 225.87753178 C-1988.5417707 228.90863507 -1992.09918034 231.88903534 -1995.70878152 234.81918217 C-2001.10954324 239.2063112 -2006.38345852 243.73141629 -2011.65800027 248.26840092 C-2018.91909155 254.51345538 -2026.2143158 260.71549367 -2033.64628152 266.75668217 C-2039.06448731 271.16831272 -2044.36149002 275.7124186 -2049.65800027 280.26840092 C-2056.91909155 286.51345538 -2064.2143158 292.71549367 -2071.64628152 298.75668217 C-2077.06448731 303.16831272 -2082.36149002 307.7124186 -2087.65800027 312.26840092 C-2094.91909155 318.51345538 -2102.2143158 324.71549367 -2109.64628152 330.75668217 C-2114.51007177 334.71426405 -2119.26759383 338.78460664 -2124.01713113 342.87753178 C-2127.5417707 345.90863507 -2131.09918034 348.88903534 -2134.70878152 351.81918217 C-2140.10954324 356.2063112 -2145.38345852 360.73141629 -2150.65800027 365.26840092 C-2157.91909155 371.51345538 -2165.2143158 377.71549367 -2172.64628152 383.75668217 C-2178.06448731 388.16831272 -2183.36149002 392.7124186 -2188.65800027 397.26840092 C-2195.91909155 403.51345538 -2203.2143158 409.71549367 -2210.64628152 415.75668217 C-2216.06448731 420.16831272 -2221.36149002 424.7124186 -2226.65800027 429.26840092 C-2233.91909155 435.51345538 -2241.2143158 441.71549367 -2248.64628152 447.75668217 C-2253.51007177 451.71426405 -2258.26759383 455.78460664 -2263.01713113 459.87753178 C-2266.5417707 462.90863507 -2270.09918034 465.88903534 -2273.70878152 468.81918217 C-2279.10954324 473.2063112 -2284.38345852 477.73141629 -2289.65800027 482.26840092 C-2296.91909155 488.51345538 -2304.2143158 494.71549367 -2311.64628152 500.75668217 C-2317.06448731 505.16831272 -2322.36149002 509.7124186 -2327.65800027 514.26840092 C-2334.91909155 520.51345538 -2342.2143158 526.71549367 -2349.64628152 532.75668217 C-2355.06448731 537.16831272 -2360.36149002 541.7124186 -2365.65800027 546.26840092 C-2372.91909155 552.51345538 -2380.2143158 558.71549367 -2387.64628152 564.75668217 C-2393.06448731 569.16831272 -2398.36149002 573.7124186 -2403.65800027 578.26840092 C-2410.91909155 584.51345538 -2418.2143158 590.71549367 -2425.64628152 596.75668217 C-2430.50342193 600.70885319 -2435.25957263 604.76819912 -2439.99515847 608.86434819 C-2442.76149339 611.25027864 -2445.53961665 613.60623288 -2448.40409402 615.87386967 C-2449.37089089 616.6395728 -2450.33768777 617.40527592 -2451.33378152 618.19418217 C-2452.18198464 618.85160405 -2453.03018777 619.50902592 -2453.90409402 620.18636967 C-2464.64696732 630.12807954 -2469.45758948 648.38576048 -2470.20350732 662.44001949 C-2470.35361624 668.67953162 -2470.30404676 674.90782415 -2470.22187356 681.1479633 C-2470.21318308 683.98880283 -2470.21822728 686.82958327 -2470.22256533 689.67042883 C-2470.22478522 695.80549495 -2470.19394108 701.93966807 -2470.14033822 708.07449032 C-2470.06075385 717.20041555 -2470.03405271 726.32598551 -2470.0174749 735.45221576 C-2469.98805778 750.82997364 -2469.9165453 766.20726178 -2469.82052544 781.5847366 C-2469.72535517 796.84606125 -2469.64902287 812.10729256 -2469.59725121 827.36882855 C-2469.59400499 828.3222879 -2469.59075876 829.27574725 -2469.58741417 830.25809931 C-2469.57101023 835.10286472 -2469.5549281 839.94763115 -2469.53896435 844.79239803 C-2469.42531613 879.09197441 -2469.26911333 913.3912383 -2469.08817605 947.69052006 C-2468.91356195 980.80633452 -2468.75956042 1013.92214159 -2468.63309792 1047.03817631 C-2468.62920914 1048.05458078 -2468.62532035 1049.07098525 -2468.62131373 1050.11818985 C-2468.58613099 1059.31794809 -2468.55117136 1068.51770716 -2468.51645143 1077.71746716 C-2468.27504321 1141.62793973 -2468.01041243 1205.53834356 -2467.68634484 1269.44845398 C-2467.65759774 1275.14319595 -2467.63036976 1280.83794371 -2467.60386208 1286.5326965 C-2467.59295132 1288.84967861 -2467.58198591 1291.16666045 -2467.57097033 1293.48364206 C-2467.56373227 1295.00793835 -2467.55655066 1296.53223491 -2467.5494259 1298.05653173 C-2467.51096876 1306.20477181 -2467.4641151 1314.35280791 -2467.39358381 1322.50083841 C-2467.37500115 1324.6871666 -2467.35650293 1326.87349546 -2467.33810123 1329.05982517 C-2467.32578059 1330.52009346 -2467.31328204 1331.98036026 -2467.300605 1333.44062549 C-2467.21989588 1342.99960659 -2467.21055364 1352.55580858 -2467.26860894 1362.11496884 C-2467.31011655 1369.10326259 -2467.31782142 1376.09112268 -2467.3043786 1383.07952298 C-2467.29827762 1387.25218337 -2467.30907626 1391.42305602 -2467.36545037 1395.59537671 C-2467.67995582 1419.91671302 -2465.87960754 1443.78783948 -2448.21351845 1462.54747894 C-2446.58456916 1464.18584856 -2444.91381555 1465.76026627 -2443.20878152 1467.31918217 C-2442.34929909 1468.10953862 -2442.34929909 1468.10953862 -2441.47245339 1468.91586186 C-2438.04660592 1472.01826339 -2434.52563731 1474.98551115 -2430.94071511 1477.9017017 C-2428.65461086 1479.77273656 -2426.40906664 1481.6892635 -2424.16215066 1483.60702397 C-2419.74175158 1487.37761583 -2415.2798899 1491.09178998 -2410.77128152 1494.75668217 C-2405.35307573 1499.16831272 -2400.05607301 1503.7124186 -2394.75956277 1508.26840092 C-2387.49847148 1514.51345538 -2380.20324723 1520.71549367 -2372.77128152 1526.75668217 C-2367.35307573 1531.16831272 -2362.05607301 1535.7124186 -2356.75956277 1540.26840092 C-2349.49847148 1546.51345538 -2342.20324723 1552.71549367 -2334.77128152 1558.75668217 C-2329.90749127 1562.71426405 -2325.1499692 1566.78460664 -2320.40043191 1570.87753178 C-2316.87579233 1573.90863507 -2313.31838269 1576.88903534 -2309.70878152 1579.81918217 C-2304.3080198 1584.2063112 -2299.03410451 1588.73141629 -2293.75956277 1593.26840092 C-2286.49847148 1599.51345538 -2279.20324723 1605.71549367 -2271.77128152 1611.75668217 C-2266.35307573 1616.16831272 -2261.05607301 1620.7124186 -2255.75956277 1625.26840092 C-2248.49847148 1631.51345538 -2241.20324723 1637.71549367 -2233.77128152 1643.75668217 C-2228.35307573 1648.16831272 -2223.05607301 1652.7124186 -2217.75956277 1657.26840092 C-2210.49847148 1663.51345538 -2203.20324723 1669.71549367 -2195.77128152 1675.75668217 C-2190.90749127 1679.71426405 -2186.1499692 1683.78460664 -2181.40043191 1687.87753178 C-2177.87579233 1690.90863507 -2174.31838269 1693.88903534 -2170.70878152 1696.81918217 C-2165.3080198 1701.2063112 -2160.03410451 1705.73141629 -2154.75956277 1710.26840092 C-2147.49847148 1716.51345538 -2140.20324723 1722.71549367 -2132.77128152 1728.75668217 C-2127.35307573 1733.16831272 -2122.05607301 1737.7124186 -2116.75956277 1742.26840092 C-2109.49847148 1748.51345538 -2102.20324723 1754.71549367 -2094.77128152 1760.75668217 C-2089.35307573 1765.16831272 -2084.05607301 1769.7124186 -2078.75956277 1774.26840092 C-2071.49847148 1780.51345538 -2064.20324723 1786.71549367 -2056.77128152 1792.75668217 C-2051.35307573 1797.16831272 -2046.05607301 1801.7124186 -2040.75956277 1806.26840092 C-2033.49847148 1812.51345538 -2026.20324723 1818.71549367 -2018.77128152 1824.75668217 C-2013.90749127 1828.71426405 -2009.1499692 1832.78460664 -2004.40043191 1836.87753178 C-2000.87579233 1839.90863507 -1997.31838269 1842.88903534 -1993.70878152 1845.81918217 C-1988.3080198 1850.2063112 -1983.03410451 1854.73141629 -1977.75956277 1859.26840092 C-1970.49847148 1865.51345538 -1963.20324723 1871.71549367 -1955.77128152 1877.75668217 C-1950.35307573 1882.16831272 -1945.05607301 1886.7124186 -1939.75956277 1891.26840092 C-1932.49847148 1897.51345538 -1925.20324723 1903.71549367 -1917.77128152 1909.75668217 C-1912.35307573 1914.16831272 -1907.05607301 1918.7124186 -1901.75956277 1923.26840092 C-1894.49847148 1929.51345538 -1887.20324723 1935.71549367 -1879.77128152 1941.75668217 C-1874.90749127 1945.71426405 -1870.1499692 1949.78460664 -1865.40043191 1953.87753178 C-1861.87579233 1956.90863507 -1858.31838269 1959.88903534 -1854.70878152 1962.81918217 C-1849.3080198 1967.2063112 -1844.03410451 1971.73141629 -1838.75956277 1976.26840092 C-1831.49847148 1982.51345538 -1824.20324723 1988.71549367 -1816.77128152 1994.75668217 C-1811.35307573 1999.16831272 -1806.05607301 2003.7124186 -1800.75956277 2008.26840092 C-1793.49847148 2014.51345538 -1786.20324723 2020.71549367 -1778.77128152 2026.75668217 C-1773.79461224 2030.80525013 -1768.92038489 2034.96464196 -1764.06644753 2039.15878178 C-1763.50755837 2039.64097172 -1762.94866921 2040.12316167 -1762.37284402 2040.61996342 C-1761.88251687 2041.04446782 -1761.39218972 2041.46897221 -1760.88700417 2041.90634038 C-1760.05628396 2042.60569707 -1760.05628396 2042.60569707 -1759.20878152 2043.31918217 C-1758.54030073 2043.92169367 -1757.87181994 2044.52420516 -1757.18308216 2045.14497458 C-1740.99866644 2056.97574889 -1720.90177771 2056.425312 -1701.81165968 2056.14539433 C-1697.79650324 2056.09572764 -1693.78126579 2056.09398039 -1689.7658492 2056.08615668 C-1682.82743719 2056.0664149 -1675.88973055 2056.0178399 -1668.95163774 2055.94909342 C-1658.76501473 2055.84844087 -1648.57853018 2055.7949148 -1638.39151634 2055.75262285 C-1622.90215297 2055.68774516 -1607.4130881 2055.59796494 -1591.92398473 2055.48776455 C-1570.72587904 2055.33723969 -1549.52824173 2055.25193944 -1528.32965496 2055.21260169 C-1525.87889204 2055.20804512 -1523.42812958 2055.20329473 -1520.97736716 2055.19847924 C-1520.1678815 2055.19688921 -1519.35839584 2055.19529918 -1518.52438031 2055.19366097 C-1517.71501524 2055.19207069 -1516.90565017 2055.19048042 -1516.07175888 2055.18884196 C-1514.43758448 2055.18564494 -1512.80341007 2055.1824519 -1511.16923565 2055.17926286 C-1509.95600014 2055.17689389 -1509.95600014 2055.17689389 -1508.71825482 2055.17447706 C-1507.08560875 2055.17131386 -1505.4529626 2055.16818735 -1503.82031639 2055.16509761 C-1485.35964734 2055.13013037 -1466.89907067 2055.07215938 -1448.43847388 2055.01053264 C-1445.83976811 2055.00186442 -1443.24106217 2054.99325248 -1440.64235615 2054.98465958 C-1433.59424822 2054.96135177 -1426.54614044 2054.93799946 -1419.49803327 2054.91446164 C-1406.41252989 2054.87080056 -1393.32702228 2054.8285923 -1380.24151162 2054.78717496 C-1378.79652599 2054.7826004 -1378.79652599 2054.7826004 -1377.32234873 2054.77793343 C-1372.40438295 2054.76236948 -1367.4864171 2054.74682447 -1362.56845123 2054.73128629 C-1327.58305231 2054.62071436 -1292.59766175 2054.50767501 -1257.6122754 2054.39320256 C-1223.09255623 2054.28026295 -1188.57283349 2054.16852381 -1154.05310563 2054.05827214 C-1152.96866207 2054.0548081 -1151.88421852 2054.05134407 -1150.76691304 2054.04777507 C-1139.75061581 2054.01258686 -1128.73431852 2053.97742115 -1117.71802117 2053.94226993 C-1094.22025501 2053.86729079 -1070.72248941 2053.79213621 -1047.22472409 2053.71689488 C-1045.54654077 2053.71152147 -1045.54654077 2053.71152147 -1043.83445476 2053.7060395 C-989.80012771 2053.53301224 -935.76580684 2053.35808716 -881.73148659 2053.1829517 C-863.05322329 2053.12241367 -844.37495996 2053.06188104 -825.69669656 2053.00137211 C-824.5379889 2052.99761838 -823.37928124 2052.99386465 -822.18546123 2052.98999716 C-768.0806243 2052.81472767 -713.97578382 2052.64056771 -659.87094226 2052.46673558 C-656.34776573 2052.455416 -652.8245892 2052.44409577 -649.30141267 2052.43277543 C-598.45824525 2052.26941367 -547.61507721 2052.10624673 -496.77190881 2051.94318972 C-490.0111081 2051.92150735 -483.25030738 2051.89982347 -476.48950667 2051.87813912 C-474.82183006 2051.87279029 -474.82183006 2051.87279029 -473.12046301 2051.8673334 C-467.5229344 2051.84938007 -461.9254058 2051.83142646 -456.3278772 2051.81347251 C-446.33342632 2051.78141572 -436.33897543 2051.74936026 -426.34452452 2051.71731319 C-373.18829222 2051.54686801 -320.03206184 2051.37584763 -266.87583501 2051.20370497 C-262.64203257 2051.18999424 -258.40823012 2051.17628378 -254.17442766 2051.16257359 C-253.13190634 2051.15919753 -252.08938501 2051.15582146 -251.01527213 2051.15234309 C-235.58318073 2051.10237145 -220.15108898 2051.05250558 -204.71899692 2051.00273778 C-203.72577803 2050.99953459 -202.73255914 2050.99633139 -201.70924271 2050.99303114 C-191.84950781 2050.96123452 -181.98977286 2050.92945256 -172.13003784 2050.89769068 C-167.3199286 2050.88219476 -162.50981938 2050.86669381 -157.69971017 2050.85118939 C-156.75696405 2050.84815066 -155.81421794 2050.84511194 -154.84290376 2050.84198113 C-139.96510388 2050.79401455 -125.08730521 2050.74568378 -110.20950703 2050.6971942 C-95.55666881 2050.64944404 -80.90382942 2050.60206974 -66.25098873 2050.55508442 C-57.68225677 2050.5275961 -49.11352562 2050.49988916 -40.54479637 2050.47156872 C-36.9297024 2050.45964769 -33.31460801 2050.44793722 -29.69951173 2050.43673865 C-28.30635709 2050.43240901 -26.91320247 2050.42807448 -25.52004787 2050.42373489 C-24.84186294 2050.42162527 -24.16367802 2050.41951566 -23.46494204 2050.41734212 C-18.87641112 2050.40273986 -14.28790361 2050.38449296 -9.69939114 2050.36500077 C0.68953737 2050.32386434 11.0745287 2050.29767923 21.46271714 2050.44166161 C23.0099241 2050.45888967 24.55713377 2050.47587611 26.10434643 2050.49258416 C28.72707961 2050.52119197 31.34478197 2050.57392364 33.96712057 2050.6445602 C52.01937408 2050.859854 70.00097113 2044.21288545 83.15157005 2031.8211353 C85.59614313 2029.58185394 88.18876675 2027.54053162 90.77949973 2025.47396733 C98.03997492 2019.68165321 105.13865232 2013.69618312 112.20576926 2007.67074467 C114.93886598 2005.34083654 117.67658826 2003.01640266 120.41621848 2000.69418217 C120.95859153 2000.23438969 121.50096458 1999.77459721 122.05977317 1999.30087163 C125.42091938 1996.45850221 128.81238842 1993.65776297 132.22871848 1990.88168217 C137.09250873 1986.9241003 141.8500308 1982.85375771 146.59956809 1978.76083256 C150.12420767 1975.72972928 153.68161731 1972.74932901 157.29121848 1969.81918217 C162.6919802 1965.43205315 167.96589549 1960.90694806 173.24043723 1956.36996342 C180.50152852 1950.12490896 187.79675277 1943.92287068 195.22871848 1937.88168217 C200.64692427 1933.47005163 205.94392699 1928.92594575 211.24043723 1924.36996342 C218.50152852 1918.12490896 225.79675277 1911.92287068 233.22871848 1905.88168217 C238.64692427 1901.47005163 243.94392699 1896.92594575 249.24043723 1892.36996342 C256.50152852 1886.12490896 263.79675277 1879.92287068 271.22871848 1873.88168217 C276.64692427 1869.47005163 281.94392699 1864.92594575 287.24043723 1860.36996342 C294.50152852 1854.12490896 301.79675277 1847.92287068 309.22871848 1841.88168217 C314.09250873 1837.9241003 318.8500308 1833.85375771 323.59956809 1829.76083256 C327.12420767 1826.72972928 330.68161731 1823.74932901 334.29121848 1820.81918217 C339.6919802 1816.43205315 344.96589549 1811.90694806 350.24043723 1807.36996342 C357.50152852 1801.12490896 364.79675277 1794.92287068 372.22871848 1788.88168217 C377.64692427 1784.47005163 382.94392699 1779.92594575 388.24043723 1775.36996342 C395.50152852 1769.12490896 402.79675277 1762.92287068 410.22871848 1756.88168217 C415.64692427 1752.47005163 420.94392699 1747.92594575 426.24043723 1743.36996342 C433.50152852 1737.12490896 440.79675277 1730.92287068 448.22871848 1724.88168217 C453.09250873 1720.9241003 457.8500308 1716.85375771 462.59956809 1712.76083256 C466.12420767 1709.72972928 469.68161731 1706.74932901 473.29121848 1703.81918217 C478.6919802 1699.43205315 483.96589549 1694.90694806 489.24043723 1690.36996342 C496.50152852 1684.12490896 503.79675277 1677.92287068 511.22871848 1671.88168217 C516.64692427 1667.47005163 521.94392699 1662.92594575 527.24043723 1658.36996342 C534.50152852 1652.12490896 541.79675277 1645.92287068 549.22871848 1639.88168217 C554.64692427 1635.47005163 559.94392699 1630.92594575 565.24043723 1626.36996342 C572.50152852 1620.12490896 579.79675277 1613.92287068 587.22871848 1607.88168217 C592.09250873 1603.9241003 596.8500308 1599.85375771 601.59956809 1595.76083256 C605.12420767 1592.72972928 608.68161731 1589.74932901 612.29121848 1586.81918217 C617.6919802 1582.43205315 622.96589549 1577.90694806 628.24043723 1573.36996342 C635.50152852 1567.12490896 642.79675277 1560.92287068 650.22871848 1554.88168217 C655.64692427 1550.47005163 660.94392699 1545.92594575 666.24043723 1541.36996342 C673.50152852 1535.12490896 680.79675277 1528.92287068 688.22871848 1522.88168217 C693.64692427 1518.47005163 698.94392699 1513.92594575 704.24043723 1509.36996342 C711.50152852 1503.12490896 718.79675277 1496.92287068 726.22871848 1490.88168217 C731.09250873 1486.9241003 735.8500308 1482.85375771 740.59956809 1478.76083256 C744.9787426 1474.99485028 749.43017605 1471.32850974 753.91621848 1467.69027592 C758.03612566 1464.29247204 762.07651615 1460.80378688 766.10957786 1457.30355717 C768.60285541 1455.14859208 771.04520096 1453.14986052 773.79121848 1451.31918217 C774.70172524 1449.66678102 775.60969283 1448.01291282 776.5026414 1446.35095765 C777.97573506 1444.028244 779.68868594 1442.22860874 781.59595176 1440.24827458 C800.82486806 1418.71957019 797.12806629 1386.69861206 796.8379757 1360.00361468 C796.78387403 1354.07938261 796.77836231 1348.15514149 796.77122232 1342.23070963 C796.7549155 1330.02389855 796.69218817 1317.81774433 796.60301658 1305.61126591 C796.51397549 1293.38898552 796.44669552 1281.16687841 796.40691062 1268.94433476 C796.4044003 1268.17519792 796.40188997 1267.40606108 796.39930357 1266.61361706 C796.38664738 1262.69474394 796.37441793 1258.77586963 796.36239442 1254.85699453 C796.33764279 1246.82774555 796.30999124 1238.79850673 796.28137656 1230.76927067 C796.27850039 1229.96095886 796.27562421 1229.15264705 796.27266088 1228.31984095 C796.22751094 1215.77243612 796.16971864 1203.22512342 796.10416099 1190.67780949 C796.0997363 1189.83035786 796.0953116 1188.98290624 796.09075283 1188.10977426 C796.06818622 1183.79666686 796.0454784 1179.48356021 796.02274641 1175.17045368 C795.79698602 1132.26528554 795.67539628 1089.36022035 795.58305637 1046.45457883 C795.54652837 1029.52256685 795.50662395 1012.59056225 795.46697999 995.65855733 C795.46041196 992.85190775 795.45386463 990.04525812 795.44731792 987.2386085 C795.38628305 961.11979 795.32058467 935.0009878 795.24477337 908.88220769 C795.23727244 906.29324914 795.22985616 903.70429035 795.22244366 901.11533155 C795.1715728 883.45512519 795.11304218 865.79500227 795.02812086 848.13492378 C794.99674601 841.60492314 794.96635502 835.07491778 794.93592722 828.54491267 C794.92833255 826.92631518 794.92065088 825.30771809 794.91288147 823.68912143 C794.81436892 803.16472763 794.78411185 782.64232728 794.86544373 762.1178176 C794.91712599 749.03477451 794.93565983 735.95196862 794.93019285 722.8688248 C794.92850051 714.49575478 794.95946108 706.12418536 795.03658114 697.75146479 C795.08563344 692.11255572 795.09400261 686.47446121 795.07195283 680.83538643 C795.06066962 677.62155448 795.07225228 674.41092067 795.12231966 671.19738676 C795.46560158 648.06935475 790.04343561 626.5504712 773.79121848 609.31918217 C771.19313915 607.01262191 768.5475534 604.83777129 765.81074973 602.69808842 C762.38433104 599.99862014 759.0882436 597.17379784 755.79121848 594.31918217 C751.66747047 590.76361233 747.51909582 587.25122378 743.29121848 583.81918217 C738.44525059 579.88539647 733.7102332 575.83470458 728.98262473 571.76058842 C725.45803945 568.72959933 721.90073016 565.74925636 718.29121848 562.81918217 C712.89045676 558.43205315 707.61654148 553.90694806 702.34199973 549.36996342 C695.08090845 543.12490896 687.7856842 536.92287068 680.35371848 530.88168217 C674.93551269 526.47005163 669.63850998 521.92594575 664.34199973 517.36996342 C657.08090845 511.12490896 649.7856842 504.92287068 642.35371848 498.88168217 C636.93551269 494.47005163 631.63850998 489.92594575 626.34199973 485.36996342 C619.08090845 479.12490896 611.7856842 472.92287068 604.35371848 466.88168217 C599.48992823 462.9241003 594.73240617 458.85375771 589.98286887 454.76083256 C586.4582293 451.72972928 582.90081966 448.74932901 579.29121848 445.81918217 C573.89045676 441.43205315 568.61654148 436.90694806 563.34199973 432.36996342 C556.08090845 426.12490896 548.7856842 419.92287068 541.35371848 413.88168217 C535.93551269 409.47005163 530.63850998 404.92594575 525.34199973 400.36996342 C518.08090845 394.12490896 510.7856842 387.92287068 503.35371848 381.88168217 C497.93551269 377.47005163 492.63850998 372.92594575 487.34199973 368.36996342 C480.08090845 362.12490896 472.7856842 355.92287068 465.35371848 349.88168217 C460.48992823 345.9241003 455.73240617 341.85375771 450.98286887 337.76083256 C447.4582293 334.72972928 443.90081966 331.74932901 440.29121848 328.81918217 C434.89045676 324.43205315 429.61654148 319.90694806 424.34199973 315.36996342 C417.08090845 309.12490896 409.7856842 302.92287068 402.35371848 296.88168217 C396.93551269 292.47005163 391.63850998 287.92594575 386.34199973 283.36996342 C379.08090845 277.12490896 371.7856842 270.92287068 364.35371848 264.88168217 C358.93551269 260.47005163 353.63850998 255.92594575 348.34199973 251.36996342 C341.08090845 245.12490896 333.7856842 238.92287068 326.35371848 232.88168217 C321.48992823 228.9241003 316.73240617 224.85375771 311.98286887 220.76083256 C308.4582293 217.72972928 304.90081966 214.74932901 301.29121848 211.81918217 C295.89045676 207.43205315 290.61654148 202.90694806 285.34199973 198.36996342 C278.08090845 192.12490896 270.7856842 185.92287068 263.35371848 179.88168217 C257.93551269 175.47005163 252.63850998 170.92594575 247.34199973 166.36996342 C240.08090845 160.12490896 232.7856842 153.92287068 225.35371848 147.88168217 C219.93551269 143.47005163 214.63850998 138.92594575 209.34199973 134.36996342 C202.08090845 128.12490896 194.7856842 121.92287068 187.35371848 115.88168217 C182.48992823 111.9241003 177.73240617 107.85375771 172.98286887 103.76083256 C169.4582293 100.72972928 165.90081966 97.74932901 162.29121848 94.81918217 C156.89045676 90.43205315 151.61654148 85.90694806 146.34199973 81.36996342 C139.08090845 75.12490896 131.7856842 68.92287068 124.35371848 62.88168217 C118.93551269 58.47005163 113.63850998 53.92594575 108.34199973 49.36996342 C104.94021507 46.44418689 101.52652028 43.53283531 98.10371848 40.63168217 C96.6747927 39.41931889 96.6747927 39.41931889 95.21699973 38.18246342 C94.69637962 37.75199711 94.1757595 37.32153081 93.63936301 36.87802006 C92.21051529 35.67284269 90.81060281 34.43331148 89.4235427 33.18026616 C82.54558234 27.16783985 75.8772874 23.76518664 67.29121848 20.75668217 C65.57225364 20.10216069 65.57225364 20.10216069 63.81856223 19.43441655 C58.65210598 17.56238433 54.30101107 16.2139543 48.78251888 16.26880368 C47.31466866 16.27932146 47.31466866 16.27932146 45.8171649 16.29005172 C42.97722117 16.31739155 40.13783811 16.32737746 37.29777941 16.33186291 Z " fill="#000000" transform="translate(2627.2087815164123,197.6808178264182)"/>
</svg>
