<?xml version="1.0" encoding="UTF-8" standalone="no"?>
<!-- Created with Inkscape (http://www.inkscape.org/) -->

<svg
   width="291.20197mm"
   height="192.09775mm"
   viewBox="0 0 291.20197 192.09775"
   version="1.1"
   id="svg1"
   xml:space="preserve"
   xmlns="http://www.w3.org/2000/svg"
   xmlns:svg="http://www.w3.org/2000/svg"><defs
     id="defs1" /><g
     id="layer1"
     transform="translate(4.2507218,-2.0818906)"><path
       style="fill:#000000;stroke-width:0.282826"
       d="M -4.2507214,2.0818906 74.94806,104.19886"
       id="path2" /><path
       style="fill:#000000;stroke-width:0.264583"
       d="M 17.4625,87.312499 C 37.747222,71.084721 58.031944,54.856944 78.316666,38.629166"
       id="path103" /><path
       style="fill:#000000;stroke-width:0.264583"
       d="m 24.695704,27.689122 83.441546,71.46787"
       id="path420" /><path
       style="fill:#000000;stroke-width:0.264583"
       d="M 160.1479,7.4835466 157.52866,150.04511"
       id="path421" /><path
       style="fill:#000000;stroke-width:0.577598"
       d="M 26.940769,30.682541 182.97272,167.63144"
       id="path424" /><path
       style="opacity:1;fill:#000000;stroke:#000000;stroke-width:1.288;stroke-dasharray:none;stroke-opacity:1"
       d="M 68.448228,21.632853 34.695048,50.039643 9.4269806,71.305333"
       id="path426" /><path
       style="fill:#000000;stroke:#000000;stroke-width:1.288;stroke-dasharray:none;stroke-opacity:1"
       d="m 225.53701,20.58468 33.75318,28.406786 25.26807,21.26569"
       id="path426-3" /><path
       style="opacity:1;fill:none;stroke:#000000;stroke-width:1.288;stroke-dasharray:none;stroke-opacity:1"
       d="m 109.63396,141.06485 0.41953,-1.62019 1.5804,-2.30413 1.979,-1.39384"
       id="path428"
       transform="rotate(35.304287,275.72284,15.994317)" /><path
       style="opacity:1;fill:none;stroke:#000000;stroke-width:1.288;stroke-dasharray:none;stroke-opacity:1"
       d="M 74.882239,43.872292 223.38387,43.40457"
       id="path429"
       transform="translate(-1.2777475,-23.849901)" /><path
       style="fill:none;stroke:#000000;stroke-width:1.288;stroke-dasharray:none;stroke-opacity:1"
       d="m 109.63396,141.06485 0.41953,-1.62019 1.5804,-2.30413 1.979,-1.39384"
       id="path428-8"
       transform="matrix(-0.81609435,0.57791869,0.57791869,0.81609435,234.70409,-156.88922)" /><path
       style="opacity:1;fill:none;stroke:#000000;stroke-width:1.288;stroke-dasharray:none;stroke-opacity:1"
       d="m 50.139763,100.27952 0.187087,63.61015"
       id="path430"
       transform="translate(-41.655197,-24.845166)" /><path
       style="fill:none;stroke:#000000;stroke-width:1.288;stroke-dasharray:none;stroke-opacity:1"
       d="m 109.63396,141.06485 0.41953,-1.62019 1.5804,-2.30413 1.979,-1.39384"
       id="path428-6"
       transform="matrix(0.56879718,0.82247782,0.82247782,-0.56879718,-167.82497,60.118534)" /><path
       style="fill:none;stroke:#000000;stroke-width:1.288;stroke-dasharray:none;stroke-opacity:1"
       d="m 109.63396,141.06485 0.41953,-1.62019 1.5804,-2.30413 1.979,-1.39384"
       id="path428-61"
       transform="rotate(-55.050092,62.439976,237.12068)" /><path
       style="fill:none;stroke:#000000;stroke-width:1.288;stroke-dasharray:none;stroke-opacity:1"
       d="m 109.63396,141.06485 0.41953,-1.62019 1.5804,-2.30413 1.979,-1.39384"
       id="path428-6-1"
       transform="rotate(123.06215,216.13386,152.55647)" /><path
       style="fill:none;stroke:#000000;stroke-width:1.288;stroke-dasharray:none;stroke-opacity:1"
       d="m 50.139763,100.27952 0.187087,63.61015"
       id="path430-7"
       transform="translate(235.98041,-26.905681)" /><path
       style="fill:none;stroke:#000000;stroke-width:1.288;stroke-dasharray:none;stroke-opacity:1"
       d="m 109.63396,141.06485 0.41953,-1.62019 1.5804,-2.30413 1.979,-1.39384"
       id="path428-61-3"
       transform="matrix(-0.57791869,-0.81609435,-0.81609435,0.57791869,462.73614,149.89529)" /><path
       style="fill:#000000;stroke:#000000;stroke-width:1.288;stroke-dasharray:none;stroke-opacity:1"
       d="m 284.42255,141.95539 -33.75318,28.40678 -25.26807,21.26569"
       id="path426-0" /><path
       style="fill:#000000;stroke:#000000;stroke-width:1.288;stroke-dasharray:none;stroke-opacity:1"
       d="m 10.417376,143.14827 33.75318,28.4068 25.26807,21.26569"
       id="path426-1" /><path
       style="fill:none;stroke:#000000;stroke-width:1.288;stroke-dasharray:none;stroke-opacity:1"
       d="M 74.882239,43.872292 223.38387,43.40457"
       id="path429-7"
       transform="translate(-2.8112378,149.63382)" /><path
       style="fill:none;stroke:#000000;stroke-width:1.288;stroke-dasharray:none;stroke-opacity:1"
       d="m 109.63396,141.06485 0.41953,-1.62019 1.5804,-2.30413 1.979,-1.39384"
       id="path428-65"
       transform="rotate(-104.37333,111.79424,181.42421)" /><path
       style="fill:none;stroke:#000000;stroke-width:1.288;stroke-dasharray:none;stroke-opacity:1"
       d="m 109.63396,141.06485 0.41953,-1.62019 1.5804,-2.30413 1.979,-1.39384"
       id="path428-0"
       transform="matrix(0.28300787,-0.95911759,-0.95911759,-0.28300787,324.50818,338.09808)" /></g></svg>
