<?xml version="1.0" encoding="UTF-8" standalone="no"?>
<!-- Created with Inkscape (http://www.inkscape.org/) -->

<svg
   width="288mm"
   height="210mm"
   viewBox="0 0 288 210"
   version="1.1"
   id="svg1"
   xml:space="preserve"
   xmlns="http://www.w3.org/2000/svg"
   xmlns:svg="http://www.w3.org/2000/svg"><defs
     id="defs1" /><g
     id="layer1"><g
       id="path1"
       style="opacity:0.984;stroke-width:0.497417;stroke-dasharray:none"
       transform="translate(8.4883529,0.41399928)"><path
         id="path3"
         style="fill:#09a3ff;stroke:none"
         d="m 87.724609,25.150391 c -0.348915,0.606672 0.616829,1.179329 0.814453,0.326171 -0.09772,-0.397618 -0.483178,-0.53607 -0.814453,-0.326171 z m 30.660161,9.695312 c -0.0645,0.678102 0.1788,0.159146 0,0 z m 7.43945,15.546875 c -0.65923,0.319683 0.0985,1.12806 0.28516,0.365234 -0.0326,-0.138523 -0.0794,-0.429576 -0.28516,-0.365234 z m -40.828126,0.44336 c -0.204767,1.022173 0.618458,0.205208 0.320783,-0.21036 -0.108116,0.06471 -0.213781,0.140774 -0.320783,0.21036 z m -7.289063,1.738281 c -0.621743,0.366246 0.505343,0.789942 0.4375,0.166015 -0.09235,-0.151013 -0.265996,-0.232342 -0.4375,-0.166015 z m 90.621089,3.466797 c -0.48587,0.29428 0.62517,-0.0099 0.0427,-0.0023 z m -26.52734,0.927734 c -0.71772,0.213621 0.18152,1.098563 0.28952,0.388806 0.0422,-0.162463 -0.0894,-0.444152 -0.28952,-0.388806 z m 11.82617,12.605469 c -0.28976,0.232955 0.58544,0.316386 0.29297,0.03125 -0.0853,-0.06163 -0.19667,-0.06465 -0.29297,-0.03125 z M 66.818359,92.921875 c -0.758649,0.389289 0.07947,0.905528 0.464844,0.451172 0.03565,-0.265864 -0.190892,-0.516593 -0.464844,-0.451172 z M 220.61914,108.6875 c -0.0974,0.25393 0.88944,-0.0347 0.0483,-0.007 z" /></g></g></svg>
