<?xml version="1.0" encoding="UTF-8"?>
<svg version="1.1" xmlns="http://www.w3.org/2000/svg" width="1123" height="794">
<path d="M0 0 C0.91346191 0.43135254 1.82692383 0.86270508 2.76806641 1.30712891 C22.67176651 10.76682604 41.28431444 21.89986047 59 35 C59.58330078 35.43022461 60.16660156 35.86044922 60.76757812 36.30371094 C80.6897308 51.08950328 99.9490378 68.06384418 116 87 C116.80953125 87.93199219 117.6190625 88.86398438 118.453125 89.82421875 C163.23145449 141.63123109 191.45279965 206.53084099 202 274 C202.22647217 275.3597998 202.22647217 275.3597998 202.45751953 276.74707031 C207.81701906 309.80598974 206.8281494 345.08396701 201 378 C200.87884827 378.68604309 200.75769653 379.37208618 200.63287354 380.07891846 C197.06753363 400.10099332 192.38258629 419.67123797 186 439 C185.65211426 440.05477539 185.30422852 441.10955078 184.94580078 442.19628906 C179.66964696 457.95472377 173.29861046 473.07555592 166 488 C165.33895264 489.35303223 165.33895264 489.35303223 164.66455078 490.73339844 C155.32877219 509.62649431 144.33743047 527.65823366 131 544 C129.89785156 545.38832031 129.89785156 545.38832031 128.7734375 546.8046875 C123.15080022 553.81808311 117.13349374 560.43608565 111 567 C110.3925293 567.65258789 109.78505859 568.30517578 109.15917969 568.97753906 C107.19153931 571.09114976 105.22135561 573.20235432 103.25 575.3125 C102.63624512 575.97016357 102.02249023 576.62782715 101.39013672 577.30541992 C94.88786313 584.24135364 88.2243339 590.81810354 81 597 C79.63101562 598.20269531 79.63101562 598.20269531 78.234375 599.4296875 C8.93464601 659.82423392 -86.7930779 691.51488844 -178.25808716 685.64489746 C-241.64966647 681.15683074 -322.04429207 660.78808673 -370 616 C-370.67519179 614.67096341 -371.34358651 613.33841083 -372 612 C-373.65357222 611.60682347 -375.32365098 611.28061155 -377 611 C-384.75955569 606.62184419 -390.79464394 600.34329155 -396.93383789 594.00854492 C-400.68163985 590.18420444 -404.39385925 587.13206327 -408.984375 584.34375 C-414.80394601 580.464036 -419.39446899 574.69708698 -423.91796875 569.41796875 C-425.52802548 567.54812801 -427.15563298 565.70184781 -428.80078125 563.86328125 C-479.75107522 506.55216151 -506.27103029 436.1992522 -517 361 C-517.13422363 360.08089844 -517.26844727 359.16179687 -517.40673828 358.21484375 C-519.00643532 346.85721974 -519.17274633 335.51356853 -519.1875 324.0625 C-519.18867828 323.36135071 -519.18985657 322.66020142 -519.19107056 321.93780518 C-519.18661134 298.55983401 -519.18661134 298.55983401 -517 292 C-516.84335124 290.52167121 -516.72854347 289.0386906 -516.640625 287.5546875 C-511.86350696 216.80512531 -478.33828194 139.14171331 -429.953125 87.1015625 C-428.19928358 85.21442913 -426.53451702 83.28212878 -424.875 81.3125 C-415.83675126 71.06358515 -407.19806858 62.05426962 -395.0234375 55.6796875 C-390.06531029 52.92517238 -386.69586672 49.39716499 -383.44140625 44.796875 C-350.97940157 -0.02816486 -271.10087715 -21.92324567 -219.06225586 -30.42160034 C-145.18496403 -42.18603649 -67.68809752 -32.31795786 0 0 Z M-376.6484375 42.53515625 C-379.09753764 45.27045392 -381.33282549 48.10588378 -383.52734375 51.046875 C-386.96863538 55.38845564 -390.08432618 57.66846952 -395.0625 60.125 C-402.6427361 63.99674488 -408.38522725 69.82318445 -414.3125 75.8125 C-415.2310376 76.73756348 -416.1495752 77.66262695 -417.09594727 78.61572266 C-423.10919997 84.79343204 -428.63564761 91.25561229 -434 98 C-434.95340549 99.16880282 -435.9076654 100.33690993 -436.86328125 101.50390625 C-475.79216981 150.1184513 -509.94940897 219.68463333 -512.375 282.75 C-512.42398438 283.63171875 -512.47296875 284.5134375 -512.5234375 285.421875 C-511.75411128 289.21109367 -509.95538639 290.57151226 -507 293 C-504.67523203 294.27478432 -502.38990913 295.43387167 -500 296.5625 C-487.09842486 303.1745374 -478.78703105 311.06179939 -473.62133789 324.76904297 C-471.82403184 329.53365376 -470.06258852 332.68265905 -466 336 C-465.34 336 -464.68 336 -464 336 C-464.41223814 332.08373763 -465.41539299 329.02702066 -467.0625 325.5 C-469.42728699 319.95119624 -469.20676624 314.95207354 -468.84765625 309.00390625 C-468.73203486 306.0494749 -468.73203486 306.0494749 -470.2421875 304.21484375 C-472.75002099 302.48165216 -475.38495785 301.30281214 -478.16015625 300.0625 C-480 299 -480 299 -482 296 C-482.69160161 290.94322458 -482.34958259 286.29885138 -480.4375 281.5625 C-478.60031287 278.11865209 -478.60031287 278.11865209 -480 275 C-480.43570313 275.54269531 -480.87140625 276.08539063 -481.3203125 276.64453125 C-487.70007831 284.30853563 -487.70007831 284.30853563 -493 286 C-496.125 286 -496.125 286 -499 285 C-504.36367012 279.49136583 -504.25738504 274.14760783 -504.24658203 266.8918457 C-504.06723847 255.17186668 -501.62330636 243.85865417 -495 234 C-488.55494646 228.17268322 -483.9487473 227.72450392 -475.41015625 227.44140625 C-471.79332304 226.973248 -470.00889491 225.96343143 -467 224 C-461.88252715 223.18770272 -461.88252715 223.18770272 -459 224 C-456.56772262 226.0527352 -454.8345552 228.41760064 -453 231 C-452.34 231.66 -451.68 232.32 -451 233 C-450.83177734 231.76636719 -450.83177734 231.76636719 -450.66015625 230.5078125 C-448.48989683 218.22386046 -441.84256118 212.37280927 -432.7109375 204.55859375 C-428.55993795 200.77720375 -426.73392331 196.37677211 -424.75 191.25 C-418.71953123 176.54507314 -403.36301759 162.75040798 -389 156 C-386.13525234 155.29804196 -383.31797777 154.83931783 -380.3984375 154.43359375 C-376.89977061 153.8010986 -375.11548018 152.87100881 -373 150 C-372.6674801 145.38272361 -373.94166726 142.11666549 -376 138 C-378.97 139.65 -381.94 141.3 -385 143 C-384 139 -384 139 -380.6875 136.8125 C-378.13416843 135.46809276 -375.8014628 134.67621516 -373 134 C-372.4225 133.525625 -371.845 133.05125 -371.25 132.5625 C-365.52267268 128.58518936 -357.59381984 128.50037405 -350.85546875 127.7578125 C-347.94314296 127.22547675 -347.94314296 127.22547675 -346.109375 125.234375 C-342.586762 118.13953473 -346.94633759 107.84972145 -348.96484375 100.7734375 C-349.68901822 97.87149839 -349.68901822 97.87149839 -352 97 C-354.48618701 98.22286718 -354.48618701 98.22286718 -357.125 99.9375 C-358.03507813 100.50339844 -358.94515625 101.06929687 -359.8828125 101.65234375 C-360.93082031 102.31943359 -360.93082031 102.31943359 -362 103 C-362.12117187 102.16855469 -362.24234375 101.33710938 -362.3671875 100.48046875 C-362.61855469 98.85044922 -362.61855469 98.85044922 -362.875 97.1875 C-363.03742188 96.10855469 -363.19984375 95.02960938 -363.3671875 93.91796875 C-363.85132338 90.82678207 -363.85132338 90.82678207 -366 88 C-368.8715965 87.33209636 -368.8715965 87.33209636 -372 88 C-374.05029195 89.61865154 -375.37564358 90.99904698 -377 93 C-377.58523438 93.68191406 -378.17046875 94.36382812 -378.7734375 95.06640625 C-383.22119005 100.40195131 -387.0077261 106.00275399 -390.69848633 111.86767578 C-399.01156964 125.00578482 -399.01156964 125.00578482 -403 127 C-404.99960012 127.039992 -407.00047242 127.04346799 -409 127 C-409.13535156 126.31035156 -409.27070313 125.62070313 -409.41015625 124.91015625 C-410.91970466 118.32057069 -413.07558628 113.91181601 -417.4765625 108.77734375 C-419.75072078 106.12415909 -420.24250085 104.2456668 -420.4375 100.8125 C-420.49808594 100.07644531 -420.55867188 99.34039062 -420.62109375 98.58203125 C-419.46193762 93.76314946 -415.99986255 90.41773364 -412.02563477 87.6003418 C-409.90080569 86.31528938 -407.75041863 85.11174103 -405.5625 83.9375 C-401.14152554 81.52856014 -397.11190515 79.22953824 -393.39453125 75.8046875 C-390.17663289 72.92236141 -387.42420788 71.95698871 -383.125 71.1875 C-379.24749741 70.76578436 -379.24749741 70.76578436 -376 69 C-375.62911039 67.19481074 -375.30258696 65.38038572 -375 63.5625 C-374.10763209 58.21526419 -374.10763209 58.21526419 -373 56 C-372.8453125 54.88625 -372.8453125 54.88625 -372.6875 53.75 C-371.26460474 48.05841897 -368.19722399 44.83592492 -363.4375 41.625 C-358.07688964 38.60370925 -353.05423237 37.8003134 -347 39 C-343.09510387 40.85727704 -341.20910906 42.6824041 -339.125 46.4375 C-337.4780025 49.37457388 -335.83032437 52.2677851 -334.02734375 55.11328125 C-333.37894531 56.14839844 -332.73054687 57.18351562 -332.0625 58.25 C-331.15177734 59.68085938 -331.15177734 59.68085938 -330.22265625 61.140625 C-328.72269797 64.64851466 -328.72718598 66.41575573 -330 70 C-332.00390625 71.109375 -332.00390625 71.109375 -334.5625 71.75 C-340.34981308 73.6736005 -342.71352956 76.86579799 -346.015625 81.85546875 C-348 84 -348 84 -350.99609375 84.9140625 C-355.52568276 85.04364762 -357.30554288 83.53541175 -361 81 C-362.6645884 77.6708232 -362.75042251 74.56893857 -362 71 C-360.39023125 68.24980684 -358.60070436 65.79846937 -356.62890625 63.296875 C-355.06994911 61.09863327 -354.32317727 59.6559296 -354 57 C-354.33 56.67 -354.66 56.34 -355 56 C-360.4917091 56.13444862 -365.93713992 56.79311227 -371 59 C-372.28446919 61.56893838 -372.32977144 63.76576337 -372.5625 66.625 C-372.64628906 67.62789063 -372.73007812 68.63078125 -372.81640625 69.6640625 C-372.87699219 70.43492187 -372.93757812 71.20578125 -373 72 C-373.79664063 72.09796875 -374.59328125 72.1959375 -375.4140625 72.296875 C-381.60116871 73.16999461 -386.05544303 73.95445339 -391 78 C-392.18102279 78.92499687 -393.36923735 79.8408475 -394.5625 80.75 C-395.23023438 81.25917969 -395.89796875 81.76835937 -396.5859375 82.29296875 C-400.55406947 85.0989132 -404.75806502 87.51819616 -408.94921875 89.97265625 C-412.91854092 92.61040043 -416.22500294 94.99612313 -417.98046875 99.53515625 C-418.00540542 102.68216351 -417.16558362 103.92035737 -415.3125 106.4375 C-414.75820313 107.21738281 -414.20390625 107.99726563 -413.6328125 108.80078125 C-413.09398437 109.52652344 -412.55515625 110.25226563 -412 111 C-408.71248724 115.44258482 -407.44333829 118.45827136 -407 124 C-402.08566855 123.27036127 -400.45605162 120.32227447 -397.5390625 116.55859375 C-395.47801679 113.737548 -393.55854064 110.8351687 -391.6484375 107.91015625 C-391.04821777 106.99266602 -390.44799805 106.07517578 -389.82958984 105.12988281 C-388.6327548 103.28687822 -387.44765144 101.43618829 -386.27587891 99.57714844 C-382.62603862 93.92920522 -378.76699372 88.64743154 -373 85 C-369.08205546 84.16463715 -365.79748524 84.73417159 -362 86 C-360.63930056 89.58933475 -359.90267559 93.26034397 -359 97 C-355.37 95.02 -351.74 93.04 -348 91 C-347.5978125 92.85625 -347.5978125 92.85625 -347.1875 94.75 C-346.36183726 98.50676546 -345.41892879 102.21865465 -344.4375 105.9375 C-342.8416551 112.29657741 -341.34741027 118.6717924 -342.625 125.1875 C-343.14409139 129.08068544 -341.53936296 131.42867793 -340 135 C-339.44339782 139.3096912 -339.52258417 142.28387625 -342 146 C-348.98100814 146.66485792 -348.98100814 146.66485792 -351.7421875 144.86328125 C-353.56868512 142.15756893 -353.2915102 140.03681622 -353.1875 136.8125 C-353.14689453 135.18248047 -353.14689453 135.18248047 -353.10546875 133.51953125 C-353.07066406 132.68808594 -353.03585937 131.85664063 -353 131 C-355.06428157 131.25690181 -357.12641094 131.53113046 -359.1875 131.8125 C-360.33605469 131.96332031 -361.48460937 132.11414063 -362.66796875 132.26953125 C-366.01836027 133.00402505 -368.1929729 134.07049926 -371 136 C-370.86980469 137.02480469 -370.73960937 138.04960937 -370.60546875 139.10546875 C-370.46472419 140.46599952 -370.3254802 141.8266861 -370.1875 143.1875 C-370.09791016 143.86103516 -370.00832031 144.53457031 -369.91601562 145.22851562 C-369.56332058 149.03390959 -369.81637941 150.74188191 -372.05078125 153.8828125 C-375.44241478 156.31760107 -377.91040805 156.93803029 -382 157.6875 C-390.75842076 159.65350079 -396.40461863 164.12793045 -403 170 C-404.10025278 170.95052968 -405.20051323 171.90105047 -406.30078125 172.8515625 C-415.21767952 180.67316731 -420.11727356 187.66811089 -424.47265625 198.6953125 C-427.07622345 204.32860624 -430.5455787 207.60115333 -435.4375 211.3125 C-444.30024546 218.48766543 -446.59432713 225.02818115 -449 236 C-449.33 236.99 -449.66 237.98 -450 239 C-449.61067144 241.14255793 -449.61067144 241.14255793 -449 243 C-450.32 243 -451.64 243 -453 243 C-453.103125 242.13375 -453.20625 241.2675 -453.3125 240.375 C-454.44936292 234.79403658 -456.62946973 230.68763492 -461 227 C-461.99 226.67 -462.98 226.34 -464 226 C-464.928125 226.61875 -465.85625 227.2375 -466.8125 227.875 C-470.52192028 230.20527685 -473.72619008 230.32618167 -478.0625 230.5 C-483.56040446 230.77925864 -486.95562182 230.95562182 -491 235 C-499.13671423 244.18994374 -501.3160815 256.20015324 -501.4375 268.125 C-501.45272705 269.19041016 -501.45272705 269.19041016 -501.46826172 270.27734375 C-501.37341359 275.86670395 -499.90503446 279.09496554 -496 283 C-492.17829017 283 -490.98895113 281.98935347 -488.2109375 279.3125 C-487.2541442 278.21826678 -486.30906732 277.11369565 -485.375 276 C-480.36292918 270.12097639 -480.36292918 270.12097639 -477 269 C-474.98699565 273.0260087 -475.59915677 276.78773322 -476.96484375 280.91796875 C-477.72115563 282.96790498 -478.50514901 285.00790326 -479.3203125 287.03515625 C-480.1617446 290.70554111 -479.52168325 292.60173614 -478 296 C-476.21447051 297.71939877 -474.37238228 298.79175991 -472.21875 299.99609375 C-467.05858819 302.88282361 -467.05858819 302.88282361 -466 305 C-466.06072541 306.73590914 -466.12585592 308.47183988 -466.21923828 310.20629883 C-466.60840517 318.99515419 -465.65970834 326.83693163 -460 334 C-456.72145305 335.83442508 -453.72392112 336.62466408 -450 337 C-449.40832031 336.16855469 -448.81664062 335.33710938 -448.20703125 334.48046875 C-447.40933485 333.38246312 -446.61113074 332.28482623 -445.8125 331.1875 C-445.42513672 330.64029297 -445.03777344 330.09308594 -444.63867188 329.52929688 C-440.732492 324.20268795 -436.39636592 321.53512782 -430 320 C-425.1383691 320 -422.60552179 321.17765408 -418.875 324.0625 C-413.97021984 327.61045953 -409.91335894 327.44299702 -404.015625 327.015625 C-400.73705936 326.99863761 -398.8466935 327.38753725 -396 329 C-394.86328125 330.81640625 -394.86328125 330.81640625 -394 333 C-393.08150867 334.65651661 -392.14267332 336.3018602 -391.1875 337.9375 C-390.70667969 338.77152344 -390.22585938 339.60554688 -389.73046875 340.46484375 C-385.62487054 346.47959146 -381.65887063 348.9000792 -374.9375 351.0625 C-366.22097925 353.89914349 -366.22097925 353.89914349 -363 358 C-361.42634361 361.58793657 -360.23490127 364.93157812 -359.39453125 368.75390625 C-358.11351289 374.46026077 -356.93290611 378.26246668 -352.140625 381.81640625 C-348.87377544 383.62271176 -345.41121914 384.65967762 -341.87109375 385.8125 C-338.71492099 387.11791023 -336.48263339 388.75495424 -333.8125 390.875 C-329.34992179 394.33237767 -325.14493974 396.29874699 -319.875 398.125 C-312.41789435 400.7288331 -305.01652027 403.41049367 -300.5 410.3125 C-297.38230474 417.97683419 -297.52243334 423.33036925 -300.61328125 431.01953125 C-302.70463984 435.51447943 -305.06567815 439.84165551 -307.51171875 444.15234375 C-309.81652791 448.56233293 -310.12384206 452.0989618 -310.17578125 457.05859375 C-310.19962891 458.25033203 -310.22347656 459.44207031 -310.24804688 460.66992188 C-310.29041137 463.14631918 -310.32198343 465.62292897 -310.34179688 468.09960938 C-310.56428942 477.75992518 -311.2010527 488.87573478 -318.5625 495.9375 C-322.60396286 499.00840518 -327.07707837 501.25610026 -331.5703125 503.58984375 C-335.66288764 505.96511646 -337.52986136 508.58958408 -339 513 C-339.12879277 515.12364972 -339.22889686 517.24909167 -339.3125 519.375 C-339.98874196 529.45620702 -342.43138756 540.96029207 -349 549 C-351.0625 550.2734375 -351.0625 550.2734375 -353.25 551.375 C-355.38412435 552.400443 -355.38412435 552.400443 -357 554 C-357.61850005 556.84596526 -357.68754669 559.50217419 -357.75 562.41015625 C-358 565 -358 565 -360.1875 567.9375 C-363.06903394 570.05062489 -366.02729231 572.01819487 -369 574 C-373.65760451 580.98640676 -371.8886558 590.19048789 -370.9375 598.125 C-370.84017578 599.17042969 -370.74285156 600.21585938 -370.64257812 601.29296875 C-369.82871303 608.17818038 -368.38533825 612.4978907 -363 617 C-360.61460724 618.80864208 -358.14449523 620.36351847 -355.5625 621.875 C-354.51098755 622.5093396 -354.51098755 622.5093396 -353.43823242 623.15649414 C-351.99243331 624.02715797 -350.54361476 624.89282781 -349.09179688 625.75341797 C-347.16758937 626.90012706 -345.26105169 628.07032695 -343.359375 629.25390625 C-298.88654958 656.78587378 -248.60127858 672.73982011 -197 680 C-196.071875 680.13277344 -195.14375 680.26554688 -194.1875 680.40234375 C-105.97918502 692.36963039 -11.48277547 662.89279086 58.82373047 609.67675781 C73.39523779 598.44979884 86.84291276 586.21028123 99.875 573.25 C100.57689453 572.55285889 101.27878906 571.85571777 102.00195312 571.13745117 C106.53804994 566.58678792 110.81051762 561.86943751 115 557 C115.94897711 555.92831854 116.89941549 554.85792862 117.8515625 553.7890625 C174.30780104 489.74088462 206.23056808 394.82125101 201.703125 309.421875 C199.66256514 277.48948592 193.91012433 246.43958392 184 216 C183.7520166 215.22624023 183.5040332 214.45248047 183.24853516 213.65527344 C169.27217936 170.44257156 147.34575601 130.63929869 118 96 C116.75669922 94.48019531 116.75669922 94.48019531 115.48828125 92.9296875 C109.28633769 85.42580078 102.62994101 78.44874768 95.75 71.5625 C94.91041748 70.72211182 94.07083496 69.88172363 93.20581055 69.01586914 C88.29396263 64.14769072 83.27039469 59.47708972 78 55 C76.75283203 53.93072266 76.75283203 53.93072266 75.48046875 52.83984375 C10.1420395 -1.36767762 -72.48304098 -31.18840011 -157.375 -31.25 C-158.22115875 -31.25067474 -159.0673175 -31.25134949 -159.93911743 -31.25204468 C-233.27826007 -31.1601851 -321.95377015 -9.82006367 -376.6484375 42.53515625 Z M-367 49 C-368.8126505 51.16220617 -368.8126505 51.16220617 -370 53 C-369.67 53.66 -369.34 54.32 -369 55 C-368.35933594 54.84402344 -367.71867188 54.68804687 -367.05859375 54.52734375 C-361.62765637 53.3051805 -357.44944639 52.81533774 -352 54 C-351.02239457 57.00801671 -350.58700143 59.10545538 -351.94140625 62.0390625 C-353.73685457 64.90106072 -355.61940532 67.55378554 -357.8125 70.125 C-359.60897505 72.96153955 -359.6138027 74.72638559 -359 78 C-355.49822026 81.18362183 -355.49822026 81.18362183 -350.99609375 81.90234375 C-348.15805933 80.61939668 -347.37467544 78.78648408 -345.8125 76.125 C-343.26519998 72.24050562 -341.61953447 70.37013085 -337.125 69.0625 C-336.36445313 68.90910156 -335.60390625 68.75570312 -334.8203125 68.59765625 C-334.21960938 68.40042969 -333.61890625 68.20320313 -333 68 C-332.505 66.515 -332.505 66.515 -332 65 C-333.03700201 62.99018124 -333.03700201 62.99018124 -334.625 60.9375 C-336.96640587 57.62050835 -338.88774235 54.35745678 -340.625 50.6875 C-343.0307994 45.73276137 -343.0307994 45.73276137 -347 42 C-354.90594989 39.30478981 -361.4271735 43.68637473 -367 49 Z M-347 130 C-349.12575659 130.78193273 -349.12575659 130.78193273 -349.625 132.625 C-350.1235825 135.78268917 -350.12039087 138.80964195 -350 142 C-348.9404123 143.28322547 -348.9404123 143.28322547 -346.5 143.125 C-344.0595877 143.28322547 -344.0595877 143.28322547 -343 142 C-342.98726301 139.96014353 -342.98726301 139.96014353 -343.25 137.625 C-343.31703125 136.83351562 -343.3840625 136.04203125 -343.453125 135.2265625 C-344.08629296 132.64866439 -344.98841004 131.67632496 -347 130 Z M-513 293 C-515.8104697 298.6209394 -515.17405578 306.35195207 -515.23828125 312.5390625 C-515.2480751 313.32981674 -515.25786896 314.12057098 -515.26795959 314.93528748 C-515.46779241 335.32905316 -514.46774153 354.85931527 -511 375 C-510.78037598 376.29228516 -510.56075195 377.58457031 -510.33447266 378.91601562 C-498.180722 449.45258038 -469.32645504 512.74277364 -421.046875 565.73046875 C-419.15440757 567.82879618 -417.32558867 569.96862806 -415.5 572.125 C-411.71937604 576.46342094 -407.57278906 580.49823078 -403 584 C-402.34 584 -401.68 584 -401 584 C-401.9702803 579.89496797 -402.98850619 575.99899872 -404.51953125 572.0703125 C-406.58541373 565.93440843 -406.60756895 559.7329609 -406.875 553.3125 C-407.41585607 543.24537402 -408.65073128 533.94016704 -411.17871094 524.1965332 C-412.97005663 516.98523557 -413.65814639 509.90734023 -414.125 502.5 C-415.31370863 484.02660732 -417.85872975 472.32901106 -431.8125 459.4375 C-439.48317553 452.04680807 -444.42779794 444.54601646 -449 435 C-449.64932529 433.7165781 -450.30035211 432.43401557 -450.953125 431.15234375 C-459.65792505 413.69559359 -463.72234491 395.25419597 -459 376 C-457.83734745 373.6209927 -456.64635835 371.31666221 -455.375 369 C-450.29680642 359.60061858 -451.35305695 349.37526032 -452 339 C-453.45463481 338.61090015 -454.91391207 338.23911971 -456.375 337.875 C-457.18710937 337.66617188 -457.99921875 337.45734375 -458.8359375 337.2421875 C-459.55007813 337.16226563 -460.26421875 337.08234375 -461 337 C-461.66 337.66 -462.32 338.32 -463 339 C-465.8125 339 -465.8125 339 -469 338 C-473.13116168 333.73953749 -475.16466934 329.67462828 -477.25 324.1875 C-483.7494948 308.37260382 -498.25642336 300.37178832 -513 293 Z M-429 323 C-429.33 324.65 -429.66 326.3 -430 328 C-431.32 328 -432.64 328 -434 328 C-434.33 327.01 -434.66 326.02 -435 325 C-441.53104602 329.57173222 -447.30092716 336.7003013 -449.75390625 344.3515625 C-450.02682758 347.28871585 -449.89325036 350.13714378 -449.73217773 353.07861328 C-449.29926762 362.35413166 -450.83911077 368.49514282 -455.37109375 376.5703125 C-457.30787237 380.64823007 -457.65949521 383.5107131 -458 388 C-458.07863281 388.9384375 -458.15726563 389.876875 -458.23828125 390.84375 C-458.82055473 411.68301122 -447.77996054 438.3331292 -433.5234375 453.57421875 C-431.75021347 455.23377457 -429.91419047 456.80354621 -428.0625 458.375 C-416.48198991 468.2916437 -413.07809923 479.1153098 -411.73266602 493.94702148 C-411.53839869 496.90153504 -411.36207948 499.85676253 -411.1875 502.8125 C-410.54232185 512.35513502 -408.99435401 521.306585 -406.7512207 530.59033203 C-405.02370461 538.0437541 -404.5012878 545.20533135 -404.30786133 552.83618164 C-404.11338535 559.55497128 -403.0700215 565.58584886 -401 572 C-400.43452299 573.81157342 -399.87191373 575.62404507 -399.3125 577.4375 C-399.06113281 578.19933594 -398.80976563 578.96117187 -398.55078125 579.74609375 C-398 582 -398 582 -398.125 584.51953125 C-397.87440848 589.49220681 -393.39999706 592.70141573 -390 596 C-384.64248944 600.79077813 -379.54243247 604.94942298 -373 608 C-372.979375 606.80375 -372.95875 605.6075 -372.9375 604.375 C-372.92589844 603.70210937 -372.91429687 603.02921875 -372.90234375 602.3359375 C-372.9510803 599.91981375 -372.9510803 599.91981375 -373.48828125 597.2578125 C-374.10796263 593.3126654 -374.22197243 589.48692182 -374.25 585.5 C-374.270625 584.76652344 -374.29125 584.03304688 -374.3125 583.27734375 C-374.34705546 578.44821794 -373.65973684 575.18685848 -371 571 C-368.50316667 569.29164035 -365.92963577 567.9632187 -363.25 566.5625 C-360.02612549 562.89086514 -360.48416307 559.53901004 -360.53125 554.77734375 C-360 552 -360 552 -357.625 550.22265625 C-356.75875 549.81917969 -355.8925 549.41570312 -355 549 C-348.30057065 544.98034239 -346.3806951 537.65884201 -343.75 530.6875 C-343.01804069 527.08870008 -342.76856842 523.72507457 -342.5625 520.0625 C-341.81954774 508.94180194 -341.81954774 508.94180194 -339 505 C-335.39362415 501.88328294 -331.23391494 499.70105019 -327.10546875 497.35546875 C-320.14331813 493.22664315 -316.82801228 489.99731266 -314.4765625 482.28271484 C-313.86574198 479.35690957 -313.83524303 476.57084356 -313.7890625 473.58203125 C-313.76070312 472.32712891 -313.73234375 471.07222656 -313.703125 469.77929688 C-313.651429 467.15443261 -313.60704576 464.52941317 -313.5703125 461.90429688 C-313.30658692 451.15198502 -311.22143741 443.69454922 -305.875 434.5 C-302.44472823 428.28321342 -299.63511744 423.01385431 -301.57421875 415.890625 C-304.82841341 408.05699805 -311.42664939 404.52285968 -318.9375 401.375 C-320.95507233 400.57505915 -322.97574987 399.78288879 -325 399 C-330.11350904 396.98433569 -334.44056735 394.77701784 -338.875 391.5 C-342.43541056 388.88384809 -345.6074402 387.28650576 -349.8125 385.9375 C-353.58177191 384.64214458 -356.60623667 383.55031092 -359.0234375 380.16796875 C-360.9584069 375.87233669 -361.89933601 371.23987726 -362.91015625 366.65625 C-364.30614032 361.97294862 -365.92459623 358.21154832 -370.26171875 355.6796875 C-371.06222656 355.41414063 -371.86273438 355.14859375 -372.6875 354.875 C-373.56148438 354.56046875 -374.43546875 354.2459375 -375.3359375 353.921875 C-376.21507812 353.61765625 -377.09421875 353.3134375 -378 353 C-388.17005124 349.21430269 -391.85642317 343.49117248 -397.3515625 334.390625 C-398.93843359 331.77374708 -398.93843359 331.77374708 -402 330 C-404.00236947 330.03697557 -406.00375143 330.15174441 -408 330.3125 C-414.76157116 330.47132885 -418.42234028 328.52097997 -423.7578125 324.53125 C-425.96037267 322.71801918 -425.96037267 322.71801918 -429 323 Z " fill="#08A3FF" transform="translate(711,67)"/>
<path d="M0 0 C4.71858711 3.43103466 4.71858711 3.43103466 6.51953125 5.33203125 C6.51953125 6.65203125 6.51953125 7.97203125 6.51953125 9.33203125 C3.75676948 8.80934659 1.19344365 8.22333538 -1.48046875 7.33203125 C-3.62302668 7.72135981 -3.62302668 7.72135981 -5.48046875 8.33203125 C-4.53001259 11.84871905 -3.78913244 13.12157874 -0.73046875 15.20703125 C3.04687052 16.51457177 4.69010639 16.35545345 8.51953125 15.33203125 C11.13237762 13.49313362 11.13237762 13.49313362 13.58203125 11.14453125 C19.95384386 5.71026055 27.90752827 0.20145671 36.58203125 -0.23046875 C42.01078462 0.54506745 47.24260935 1.85449312 52.51953125 3.33203125 C52.47828125 2.23890625 52.43703125 1.14578125 52.39453125 0.01953125 C52.51953125 -3.66796875 52.51953125 -3.66796875 54.51953125 -6.66796875 C61.17197371 -7.73711129 64.65532188 -5.74887118 70.17578125 -2.13671875 C72.84707173 -0.46271005 75.4752753 0.53091126 78.51953125 1.33203125 C78.51953125 2.32203125 78.51953125 3.31203125 78.51953125 4.33203125 C72.33836869 4.17464054 68.39415366 3.0005192 63.31640625 -0.5234375 C61.11417923 -1.92616037 59.10845255 -2.42525738 56.51953125 -2.66796875 C56.58140625 -1.76046875 56.64328125 -0.85296875 56.70703125 0.08203125 C56.51953125 3.33203125 56.51953125 3.33203125 55.51953125 5.70703125 C52.91321278 7.82466501 50.78410589 7.76100018 47.5 7.60546875 C44.97679275 7.25709694 42.86944297 6.2960976 40.51953125 5.33203125 C30.35441916 4.54441966 21.4429793 10.53708898 13.76953125 16.70703125 C12.60164063 17.70863281 12.60164063 17.70863281 11.41015625 18.73046875 C8.54274822 21.15947142 7.00890512 21.49814347 3.33203125 21.20703125 C-1.81117195 20.58386447 -4.57380111 18.66897653 -8.48046875 15.33203125 C-9.87981888 12.53333098 -9.7331228 10.42704333 -9.48046875 7.33203125 C-8.10546875 5.45703125 -8.10546875 5.45703125 -6.48046875 4.33203125 C-5.82046875 4.33203125 -5.16046875 4.33203125 -4.48046875 4.33203125 C-7.38357124 1.07372563 -9.79752079 -0.45531653 -13.91796875 -1.85546875 C-14.84480469 -2.17902344 -15.77164063 -2.50257812 -16.7265625 -2.8359375 C-29.79690762 -6.78485028 -42.68404554 -5.36372235 -54.65625 1.02734375 C-61.5821634 5.12483024 -67.96109463 9.82277377 -74.2578125 14.80859375 C-76.42387031 16.52215092 -78.6194244 18.17720306 -80.859375 19.79296875 C-81.67716431 20.38670288 -81.67716431 20.38670288 -82.51147461 20.99243164 C-84.01034276 22.07577653 -85.51475733 23.15143583 -87.01953125 24.2265625 C-90.17423723 26.92558873 -92.22461061 29.37727506 -92.7734375 33.5703125 C-92.72123047 34.59705078 -92.72123047 34.59705078 -92.66796875 35.64453125 C-92.60609375 36.86140625 -92.54421875 38.07828125 -92.48046875 39.33203125 C-91.45566406 39.38101563 -90.43085937 39.43 -89.375 39.48046875 C-88.01429815 39.55554196 -86.65362231 39.6310878 -85.29296875 39.70703125 C-84.28266602 39.7534375 -84.28266602 39.7534375 -83.25195312 39.80078125 C-78.45500189 40.0815784 -74.34692219 40.53470571 -70.79296875 43.95703125 C-68.94117139 47.30790265 -68.29078119 50.59212766 -67.48046875 54.33203125 C-63.53813245 53.05343569 -61.62216575 51.8982783 -59.48046875 48.33203125 C-59.13387277 45.91904961 -59.13387277 45.91904961 -59.328125 43.33984375 C-59.35583984 42.38722656 -59.38355469 41.43460938 -59.41210938 40.453125 C-59.49901602 38.46335199 -59.59012968 36.47375806 -59.68554688 34.484375 C-59.85068673 28.51517344 -59.62480777 25.00620696 -55.48046875 20.33203125 C-51.92523733 16.7021101 -48.36585818 13.97506238 -43.16796875 13.70703125 C-39.48046875 14.33203125 -39.48046875 14.33203125 -37.76171875 15.94921875 C-36.05157268 19.12967333 -36.18531043 21.49342064 -36.29296875 25.08203125 C-36.33357422 26.83773437 -36.33357422 26.83773437 -36.375 28.62890625 C-36.40980469 29.5209375 -36.44460938 30.41296875 -36.48046875 31.33203125 C-32.64326798 33.25063163 -27.99156153 33.15600208 -23.765625 33.63671875 C-20.52283536 34.32306424 -19.29012865 34.61093681 -17.48046875 37.33203125 C-17.29296875 40.20703125 -17.29296875 40.20703125 -18.48046875 43.33203125 C-21.83571591 46.09891753 -25.76332864 47.95911839 -29.60546875 49.95703125 C-33.32882779 53.03284958 -34.97139883 56.48028324 -37.0859375 60.7734375 C-39.30981285 64.85365698 -40.43512585 65.9914139 -44.95703125 67.46484375 C-46.33659821 67.80886002 -47.71968196 68.13899485 -49.10546875 68.45703125 C-49.82532959 68.62662354 -50.54519043 68.79621582 -51.28686523 68.97094727 C-66.3665283 72.43622767 -66.3665283 72.43622767 -73.48046875 68.33203125 C-76.16796875 65.83203125 -76.16796875 65.83203125 -78.48046875 63.33203125 C-79.79954124 62.31329402 -81.13061177 61.30961189 -82.48046875 60.33203125 C-82.54041016 61.24082031 -82.54041016 61.24082031 -82.6015625 62.16796875 C-83.7966526 71.75819799 -89.31748314 76.84849666 -96.49609375 82.85546875 C-104.0620922 88.72957308 -111.0109332 92.33014214 -120.41796875 94.01953125 C-121.10181641 94.14908203 -121.78566406 94.27863281 -122.49023438 94.41210938 C-124.15230673 94.72592723 -125.81621002 95.03002291 -127.48046875 95.33203125 C-126.73104738 96.68651823 -125.98089449 98.04060047 -125.23046875 99.39453125 C-124.77800781 100.21953125 -124.32554687 101.04453125 -123.859375 101.89453125 C-123.03276173 103.35573997 -122.17480577 104.80077958 -121.2578125 106.20703125 C-118.2341692 110.88880153 -117.77145826 113.9258263 -118.48046875 119.33203125 C-119.85546875 121.5390625 -119.85546875 121.5390625 -122.48046875 123.33203125 C-126.91149464 124.0157777 -131.38693528 123.83851782 -135.859375 123.8203125 C-141.32101405 123.79323362 -141.32101405 123.79323362 -146.0546875 126.19921875 C-150.01765208 132.12737946 -149.82443876 137.55710047 -148.48046875 144.33203125 C-146.85214772 148.59668156 -145.3480151 150.93718049 -141.48046875 153.33203125 C-136.01034169 154.1841616 -129.29805832 153.98662142 -124.48046875 151.33203125 C-123.43958888 148.7021976 -122.86547269 146.09346928 -122.2578125 143.33203125 C-119.53288712 132.8157363 -110.71431763 123.23249194 -101.65234375 117.5625 C-94.96179627 114.16831875 -88.74584599 111.84882639 -81.26171875 113.95703125 C-74.28142426 116.93529023 -69.17864024 122.01337918 -63.83374023 127.25439453 C-60.24680477 130.76841899 -56.76202687 133.69874167 -52.48046875 136.33203125 C-55.59934631 130.9448791 -59.7447508 126.97940651 -64.23828125 122.69921875 C-66.25298761 120.57219426 -67.50459416 119.06786463 -68.48046875 116.33203125 C-67.93699049 110.78855299 -67.93699049 110.78855299 -66.48046875 109.33203125 C-60.55475493 108.69581229 -57.15088209 110.20691914 -52.54296875 113.70703125 C-51.93106689 114.16327881 -51.31916504 114.61952637 -50.6887207 115.08959961 C-40.05301153 123.28252291 -34.13819859 134.38793491 -28.48046875 146.33203125 C-28.48046875 146.99203125 -28.48046875 147.65203125 -28.48046875 148.33203125 C-27.82046875 148.33203125 -27.16046875 148.33203125 -26.48046875 148.33203125 C-26.4546875 147.75195312 -26.42890625 147.171875 -26.40234375 146.57421875 C-26.00604348 141.11608327 -25.15392684 137.61773236 -21.48046875 133.33203125 C-17.16131212 129.62989699 -12.88164082 130.01431525 -7.48046875 130.33203125 C-7.54234375 129.25953125 -7.60421875 128.18703125 -7.66796875 127.08203125 C-7.62275045 118.59606295 -5.83427263 110.76310859 0.1171875 104.5390625 C2.93267439 102.1157047 5.62681457 101.89453125 9.29296875 101.89453125 C12.83809494 102.59111745 15.0389637 104.72886949 17.66015625 107.1171875 C19.45162445 108.56652241 19.45162445 108.56652241 21.66015625 108.109375 C23.60821736 107.43316844 23.60821736 107.43316844 25.01953125 105.83203125 C26.87853324 103.97302926 27.88159808 103.41196862 30.51953125 103.33203125 C33.46499778 105.47418873 34.47995194 107.22714607 35.76953125 110.64453125 C38.09767603 116.57303107 43.65738966 120.26956565 48.95703125 123.45703125 C51.51953125 125.33203125 51.51953125 125.33203125 52.64453125 127.76953125 C52.46696944 131.40954839 51.09169863 132.82938191 48.51953125 135.33203125 C45.06684561 136.87978688 41.23979609 136.53699387 37.51953125 136.33203125 C34.34375 134.94921875 34.34375 134.94921875 31.20703125 133.20703125 C25.89796478 130.64340669 22.73073747 129.6672258 17.0625 131.359375 C15.80373047 131.84083984 15.80373047 131.84083984 14.51953125 132.33203125 C13.50503906 132.70457031 12.49054688 133.07710937 11.4453125 133.4609375 C3.49881529 136.56193189 3.49881529 136.56193189 -3.48046875 141.33203125 C-4.44266577 143.95969514 -4.44266577 143.95969514 -4.48046875 146.33203125 C-3.57296875 147.11578125 -2.66546875 147.89953125 -1.73046875 148.70703125 C-0.96476562 149.36832031 -0.96476562 149.36832031 -0.18359375 150.04296875 C5.02071112 153.98200684 9.86811688 153.4718373 16.14453125 153.25390625 C20.68670866 153.15760567 24.27004234 153.48134336 28.51953125 155.33203125 C32.54443689 159.63451659 32.81299354 163.92171095 32.73046875 169.56640625 C32.28603678 175.39340315 31.24473986 181.25169398 26.76953125 185.33203125 C16.06550391 191.919125 3.01216573 189.93733125 -8.7890625 187.40234375 C-13.72861752 185.97013415 -18.14816065 183.8607455 -22.67578125 181.44140625 C-25.89189124 180.16929589 -27.28184538 180.05366987 -30.48046875 181.33203125 C-32.03680574 183.08296554 -32.03680574 183.08296554 -33.10546875 185.26953125 C-34.77328372 188.35330994 -35.4378554 189.30362235 -38.48046875 191.33203125 C-46.09381087 191.8312668 -50.29498697 188.60300592 -56.09033203 184.13330078 C-60.81189845 180.57455586 -65.27455956 178.66961646 -71.0546875 177.24609375 C-74.08280771 176.10506295 -74.94335255 175.16683746 -76.48046875 172.33203125 C-77.29952153 168.9813608 -77.86826383 165.63111379 -78.44140625 162.23046875 C-79.19501828 159.20067415 -79.19501828 159.20067415 -81.671875 157.92578125 C-92.1987426 155.70035166 -103.281865 158.99756095 -112.81640625 163.4140625 C-118.46442601 165.98747765 -123.48536971 166.71249655 -129.60546875 167.20703125 C-137.8855627 167.87764462 -137.8855627 167.87764462 -144.82421875 172.1171875 C-149.44742752 178.29963885 -152.83407925 185.4266422 -155.82421875 192.51953125 C-159.06444711 199.9483475 -163.31205387 204.23875498 -169.29516602 209.47485352 C-174.82156977 214.40086511 -178.32524799 219.6161703 -181.48046875 226.33203125 C-181.98320312 227.35554687 -182.4859375 228.3790625 -183.00390625 229.43359375 C-186.03291272 236.04385648 -187.90348213 242.01503553 -185.9765625 249.21484375 C-184.20037248 256.79511925 -185.25743768 264.32295068 -187.54296875 271.64453125 C-189.83355379 279.03984867 -190.11446216 283.50478438 -186.48046875 290.51953125 C-183.8557982 294.93443951 -180.89678802 299.11624391 -177.92871094 303.30541992 C-175.3053293 307.03714214 -172.97187732 310.85328635 -170.73046875 314.83203125 C-168.37769305 318.9520993 -166.14805242 322.24353974 -162.48046875 325.33203125 C-161.18109375 326.44578125 -161.18109375 326.44578125 -159.85546875 327.58203125 C-151.74492411 333.55822204 -135.95108418 330.41956604 -126.48046875 329.33203125 C-121.74337386 328.26817153 -117.41771421 326.57712121 -112.99609375 324.609375 C-108.18702812 322.86208116 -103.7425258 322.33893303 -98.91796875 324.45703125 C-96.48046875 326.33203125 -96.48046875 326.33203125 -95.04296875 327.7265625 C-90.50216884 332.03813934 -86.17224911 333.70195524 -80.15234375 335.375 C-77.43311336 336.34899334 -76.21491084 337.06261514 -74.48046875 339.33203125 C-73.37918307 342.63588828 -73.49424278 344.72694559 -73.69921875 348.1875 C-74.32444688 362.83555802 -73.97056665 372.50512282 -65.58740234 384.57714844 C-58.84432019 395.26732809 -55.79773104 412.85391012 -56.48046875 425.33203125 C-57.21484375 428.21875 -57.21484375 428.21875 -58.23046875 431.01953125 C-58.59011719 432.05078125 -58.94976563 433.08203125 -59.3203125 434.14453125 C-60.0882946 436.25454267 -60.87196802 438.35891458 -61.671875 440.45703125 C-66.17930414 452.77000842 -62.83413935 460.64828464 -58.22949219 472.39990234 C-55.57530728 479.24645363 -53.4918404 485.99469319 -52.10546875 493.20703125 C-50.79741369 499.74730657 -48.55555689 505.3478844 -45.78515625 511.37109375 C-43.70035369 516.10247202 -43.34079202 519.97302223 -43.10546875 525.14453125 C-42.75939917 530.58519888 -42.09087537 534.56520177 -39.48046875 539.33203125 C-25.80460327 541.97123336 -13.05439797 537.4280373 -1.48046875 530.33203125 C9.37695323 522.84637925 14.29039638 511.08942347 19.84375 499.55859375 C21.51953125 496.33203125 21.51953125 496.33203125 23.68359375 493.21484375 C25.51036944 490.34641724 26.04521756 488.90758148 26.20703125 485.58203125 C26.26890625 484.72351563 26.33078125 483.865 26.39453125 482.98046875 C26.47684249 481.23649941 26.53984633 479.49149475 26.58203125 477.74609375 C27.04755779 468.29008593 31.8174763 463.77109421 38.58203125 457.58203125 C41.06538457 455.4007604 43.5516418 453.30772502 46.1875 451.3125 C50.55068923 447.60707799 52.95192261 442.00811763 53.51953125 436.33203125 C53.70339118 430.33031791 53.04959408 424.85791123 52.01953125 418.95703125 C49.27865024 401.79492403 48.74964325 388.26903232 59.01953125 373.58203125 C63.01541663 368.07306112 67.37006179 362.92022202 71.83691406 357.79174805 C85.12118727 342.47498951 103.51953125 320.93888368 103.51953125 299.33203125 C98.53901119 300.21583961 93.76104181 301.16730186 89.01953125 302.95703125 C82.94475874 305.05363415 77.21568811 305.52456217 71.26953125 302.89453125 C67.59113025 299.46693032 65.12575842 295.60564295 62.51953125 291.33203125 C59.51971564 286.47026112 56.00959104 282.55166155 52.03125 278.48046875 C45.03321219 270.29065711 41.18288479 260.47566967 37.86029053 250.37606812 C34.18184839 239.2182186 30.15479713 228.49594201 24.60424805 218.10375977 C21.85029139 212.78458233 19.90406089 207.41886181 20.51953125 201.33203125 C21.83740234 199.07495117 21.83740234 199.07495117 23.51953125 197.33203125 C26.39453125 196.76953125 26.39453125 196.76953125 29.51953125 197.33203125 C37.188497 203.27547971 41.78014584 213.36728257 46.26953125 221.76953125 C50.66669157 229.96441992 50.66669157 229.96441992 55.23828125 238.0625 C63.5155094 252.38241942 73.11291258 269.42066343 72.51953125 286.33203125 C93.45400966 283.98196722 113.77012694 271.16310742 127.08203125 255.14453125 C130.95886354 249.96449318 133.88363651 245.24654881 135.26953125 238.89453125 C133.93788845 232.56922797 129.15119465 228.12724391 123.9140625 224.5546875 C121.57585752 223.10064406 121.57585752 223.10064406 118.89453125 223.51953125 C116.29905065 224.29448121 116.29905065 224.29448121 113.51953125 226.33203125 C108.70111549 226.98537576 105.66939808 226.86671756 101.58203125 224.14453125 C94.24897366 218.04088174 87.00512211 207.58291453 84.51953125 198.33203125 C84.58075739 195.02581979 85.01439148 193.25316848 86.58203125 190.39453125 C89.22614646 188.94453259 91.43573831 189.22435281 94.36010742 189.63891602 C98.44160599 190.948964 100.87656664 194.13146801 103.64453125 197.26953125 C109.29992676 203.55818058 113.23268546 206.00853567 121.76953125 207.08203125 C127.03573044 207.97047846 130.74239177 209.91292125 135.1328125 212.89453125 C141.63536769 216.81096384 148.0922044 216.6892788 155.44335938 216.81054688 C162.07107607 217.0274155 167.02313857 218.17820924 172.1953125 222.640625 C174.60895421 225.43558154 176.64427739 228.33329616 178.70703125 231.39453125 C182.42260847 236.4917804 185.22161531 238.83252746 191.35546875 240.29296875 C194.70579418 241.90160876 195.22061622 243.89372677 196.51953125 247.33203125 C197.29795724 250.60025965 197.84827686 253.89316801 198.39453125 257.20703125 C200.91145275 271.25771204 205.05552846 283.93006047 210.96875 296.90625 C212.23013816 299.69274224 213.41311892 302.48152066 214.51953125 305.33203125 C220.1333768 300.22907016 220.83922381 293.29569819 221.33203125 286.08203125 C222.50201045 273.96410691 227.94518621 265.71413253 235.34375 256.2265625 C237.93323492 252.78166425 240.0838928 249.1820734 242.24609375 245.4609375 C244.56370419 241.58640471 246.76644707 238.83408737 250.51953125 236.33203125 C251.50953125 236.33203125 252.49953125 236.33203125 253.51953125 236.33203125 C253.84953125 237.32203125 254.17953125 238.31203125 254.51953125 239.33203125 C253.64167969 239.9765625 252.76382812 240.62109375 251.859375 241.28515625 C247.89139651 244.5954909 245.62214471 248.64095626 243.08203125 253.08203125 C239.70411693 258.82046427 236.34792295 264.27395177 231.95703125 269.3125 C227.63722337 275.38136053 226.96548945 281.43016446 226.20703125 288.64453125 C225.25916948 296.27832172 224.31521131 303.70995451 218.51953125 309.33203125 C215.82421875 310.5703125 215.82421875 310.5703125 213.51953125 311.33203125 C202.69879446 293.50802573 195.6206486 274.51952462 192.50708008 253.86376953 C191.80373621 248.79744102 191.80373621 248.79744102 189.51953125 244.33203125 C187.63774379 243.64133226 187.63774379 243.64133226 185.45703125 243.33203125 C179.47703796 241.6179591 177.02189027 237.30773958 173.66015625 232.33984375 C170.57093943 227.99915588 167.49384979 224.40461589 162.51953125 222.33203125 C160.48250259 222.03495264 160.48250259 222.03495264 158.359375 222.05859375 C157.57087158 222.04086914 156.78236816 222.02314453 155.9699707 222.00488281 C155.14070068 221.9890918 154.31143066 221.97330078 153.45703125 221.95703125 C144.07388091 221.61269546 136.47339603 220.16302361 128.64453125 214.70703125 C125.15576506 212.33093741 122.19487534 211.86965661 118.01953125 211.39453125 C108.94154142 210.26109437 104.43033129 205.72745454 98.82421875 198.87890625 C97.22366426 196.98124284 95.68401882 195.5585742 93.51953125 194.33203125 C92.19953125 194.33203125 90.87953125 194.33203125 89.51953125 194.33203125 C90.58888364 203.67844886 96.65043419 212.96016106 103.51953125 219.33203125 C106.24008242 221.69388443 106.24008242 221.69388443 109.51953125 222.33203125 C111.6442467 221.49344212 113.53303373 220.41399197 115.51953125 219.2890625 C118.94980737 217.64762178 120.9661739 218.1475788 124.51953125 219.33203125 C130.91197919 223.23478894 138.16276991 228.9049859 140.05859375 236.48828125 C140.70420711 246.13850204 134.52709204 253.93686328 128.58959961 260.93188477 C115.4162232 275.81465502 95.99679627 287.1583316 76.51953125 291.33203125 C72.89453125 291.51953125 72.89453125 291.51953125 70.51953125 291.33203125 C70.18953125 291.99203125 69.85953125 292.65203125 69.51953125 293.33203125 C72.06557722 296.85584812 72.06557722 296.85584812 75.51953125 299.33203125 C81.04134459 299.7702704 84.86433428 299.38395916 90.01953125 297.33203125 C94.79194835 295.44853517 99.40023311 294.14819355 104.51953125 295.33203125 C106.57957982 296.94343155 107.42201766 297.85861231 107.95532227 300.44775391 C107.97124593 307.31985517 106.32201853 312.50663427 103.45703125 318.70703125 C103.04437012 319.62677734 102.63170898 320.54652344 102.20654297 321.49414062 C96.80393035 333.34935098 90.42756968 343.05516437 81.86865234 352.78564453 C78.30373618 356.87181518 74.91650857 361.10637953 71.51953125 365.33203125 C70.89449707 366.09749268 70.89449707 366.09749268 70.25683594 366.87841797 C61.42658821 377.72333387 53.62225178 388.2934367 54.71166992 402.90991211 C55.04826005 405.52152405 55.45560876 408.11073385 55.89453125 410.70703125 C56.17915043 412.55697482 56.46171781 414.40723528 56.7421875 416.2578125 C56.8777002 417.13518066 57.01321289 418.01254883 57.15283203 418.91650391 C58.89890867 430.41828971 59.87495374 442.17830014 52.62890625 452.04296875 C49.46118841 455.48052923 45.93696551 458.44842448 42.27807617 461.35180664 C37.72645223 464.97776858 33.40752885 468.66803846 31.51953125 474.33203125 C31.46388263 476.12927565 31.41107456 477.92672963 31.38256836 479.72460938 C31.20794969 487.00629234 30.27859069 492.15299672 26.3203125 498.42578125 C24.54154357 501.29650595 23.09280579 504.19203719 21.64501953 507.23657227 C13.39696487 524.51159745 3.07815621 535.7317979 -15.26953125 542.3359375 C-23.77374708 544.87249755 -34.15758709 547.32007871 -42.48046875 543.33203125 C-46.55352224 538.47112435 -46.98855397 534.8086038 -47.23046875 528.76953125 C-47.83924694 520.06477158 -50.22830742 512.85236943 -53.52636719 504.82006836 C-55.49569701 499.99825105 -57.0593037 495.48689529 -57.98046875 490.33203125 C-59.60990629 481.3158102 -63.26341195 472.95301639 -66.68017578 464.49169922 C-70.8230968 453.3116262 -68.62559068 442.97930894 -63.890625 432.51171875 C-60.22749286 424.25191387 -61.1499173 416.19023759 -63.16796875 407.58203125 C-63.34803467 406.8019873 -63.52810059 406.02194336 -63.71362305 405.21826172 C-66.28406461 394.52144764 -70.24925789 385.16351668 -76.02734375 375.79296875 C-80.30449512 368.54940595 -78.87668766 358.84202356 -77.85546875 350.76953125 C-77.45414135 347.06029314 -77.18877088 344.48311582 -79.48046875 341.33203125 C-81.85470004 340.12163883 -83.98766679 339.19336526 -86.48046875 338.33203125 C-91.96547808 336.3374824 -95.25154262 333.94427591 -99.1953125 329.7578125 C-102.55011762 327.66464349 -105.68681013 327.78957476 -109.48046875 328.33203125 C-112.03978519 329.23483219 -114.44108279 330.19036957 -116.91796875 331.26953125 C-124.38266767 334.2130676 -131.48909743 335.0364463 -139.48046875 335.33203125 C-140.53032959 335.37320068 -141.58019043 335.41437012 -142.66186523 335.45678711 C-151.32584033 335.63394055 -159.10497868 335.50272282 -165.66796875 329.26953125 C-172.64513955 322.50770523 -176.94971985 314.54825284 -181.75 306.1875 C-183.27007858 303.67919877 -184.86668411 301.39148687 -186.66796875 299.08203125 C-193.09558257 290.63824902 -194.56227367 284.11277681 -193.48046875 273.33203125 C-192.84102695 271.01177099 -192.03944144 268.85557566 -191.15234375 266.62109375 C-189.63003738 261.43463137 -189.81577328 255.29294743 -190.99609375 250.03515625 C-192.32089121 242.64193172 -191.44115814 236.77667329 -188.41796875 229.95703125 C-188.10214844 229.22242676 -187.78632813 228.48782227 -187.4609375 227.73095703 C-182.75620086 217.08695712 -176.8967826 208.13369959 -167.515625 201.11328125 C-163.99388398 198.18789787 -162.34925523 194.82002352 -160.48046875 190.70703125 C-159.79537688 189.27941661 -159.1091732 187.852335 -158.421875 186.42578125 C-158.09203613 185.7296875 -157.76219727 185.03359375 -157.42236328 184.31640625 C-153.19793389 175.41641607 -149.11692266 167.15927535 -139.48046875 163.33203125 C-137.27819924 163.11291375 -135.06713245 162.97544578 -132.85546875 162.89453125 C-125.58615573 162.45146362 -119.43735257 161.1820787 -112.83203125 158.09375 C-106.62979977 155.21353565 -100.92011203 153.68278615 -94.16796875 152.89453125 C-93.41515625 152.80163818 -92.66234375 152.70874512 -91.88671875 152.61303711 C-86.02837317 152.04340373 -81.05645473 152.44842213 -76.140625 156.04296875 C-74.02405815 158.96134093 -73.55251345 161.42114066 -72.91796875 164.95703125 C-72.35801509 168.35992867 -72.35801509 168.35992867 -71.48046875 171.33203125 C-68.54306586 173.60937449 -68.54306586 173.60937449 -64.66796875 173.83203125 C-58.99042353 174.93961794 -54.9731671 178.27442421 -50.5300293 181.7890625 C-46.87055635 184.61884684 -44.24368705 185.97786176 -39.48046875 186.33203125 C-38.99835938 185.62175781 -38.51625 184.91148437 -38.01953125 184.1796875 C-37.38789062 183.26058594 -36.75625 182.34148437 -36.10546875 181.39453125 C-35.47898437 180.47800781 -34.8525 179.56148437 -34.20703125 178.6171875 C-32.48046875 176.33203125 -32.48046875 176.33203125 -30.48046875 175.33203125 C-24.61287271 175.4266699 -20.73680129 176.52182629 -15.54296875 179.26953125 C-5.13918813 184.72660863 4.99639966 184.83880772 16.51953125 184.33203125 C17.41027344 184.29851562 18.30101562 184.265 19.21875 184.23046875 C21.60699947 184.04181797 21.60699947 184.04181797 24.51953125 182.33203125 C27.67816603 176.75286192 28.91785058 168.60795265 27.51953125 162.33203125 C26.13250104 159.87059859 26.13250104 159.87059859 23.51953125 158.33203125 C20.53257443 158.17065343 17.8549153 158.1964838 14.89453125 158.39453125 C5.78915499 158.71184258 0.32082395 156.84517225 -7.04296875 151.45703125 C-9.1301623 148.3716147 -9.41656945 146.03819041 -9.48046875 142.33203125 C-8.04296875 139.01953125 -8.04296875 139.01953125 -6.48046875 136.33203125 C-6.48046875 135.67203125 -6.48046875 135.01203125 -6.48046875 134.33203125 C-13.16066764 134.35858795 -13.16066764 134.35858795 -18.91796875 137.26953125 C-21.05906222 141.46607446 -22.31354452 145.77925868 -23.48046875 150.33203125 C-22.49046875 150.33203125 -21.50046875 150.33203125 -20.48046875 150.33203125 C-20.81046875 152.31203125 -21.14046875 154.29203125 -21.48046875 156.33203125 C-25.81084713 157.65520242 -25.81084713 157.65520242 -28.390625 156.41015625 C-31.55844817 153.26009657 -32.90925025 149.4554366 -34.66796875 145.39453125 C-40.7478959 132.06623418 -48.23684259 120.14629107 -62.30859375 114.12109375 C-63.0253125 113.86070312 -63.74203125 113.6003125 -64.48046875 113.33203125 C-61.36159119 118.7191834 -57.2161867 122.68465599 -52.72265625 126.96484375 C-49.86242049 129.98453516 -48.52956472 131.76329807 -48.3984375 135.953125 C-49.04199381 142.67782212 -49.8482053 146.6997678 -54.73046875 151.58203125 C-58.01290704 153.67085561 -60.63581514 154.03048979 -64.48046875 154.33203125 C-64.48046875 153.01203125 -64.48046875 151.69203125 -64.48046875 150.33203125 C-61.51046875 149.34203125 -58.54046875 148.35203125 -55.48046875 147.33203125 C-55.15046875 145.35203125 -54.82046875 143.37203125 -54.48046875 141.33203125 C-55.14691406 140.79835937 -55.81335938 140.2646875 -56.5 139.71484375 C-61.56814007 135.61780185 -66.46520292 131.4675533 -71.23046875 127.01953125 C-78.29244655 120.56769544 -78.29244655 120.56769544 -87.29296875 117.76953125 C-94.73374434 118.17407827 -102.51089469 122.96126762 -107.48046875 128.33203125 C-112.98705603 134.77430817 -116.1063966 140.63122554 -118.49609375 148.72265625 C-120.35719967 153.65606399 -123.5095967 155.36951234 -128.16796875 157.64453125 C-134.34694894 158.9269611 -140.12348613 159.44624121 -145.91796875 156.70703125 C-150.57563565 152.39016924 -153.25762107 148.19403221 -153.75390625 141.8203125 C-154.20560572 128.55243584 -154.20560572 128.55243584 -149.96484375 122.71484375 C-146.99560233 119.94876095 -144.2688836 119.07669294 -140.2578125 119.20703125 C-139.47212891 119.2225 -138.68644531 119.23796875 -137.87695312 119.25390625 C-137.06548828 119.2796875 -136.25402344 119.30546875 -135.41796875 119.33203125 C-133.80235371 119.38311789 -132.1864208 119.42516058 -130.5703125 119.45703125 C-129.85738037 119.48023438 -129.14444824 119.5034375 -128.40991211 119.52734375 C-126.15153194 119.45079914 -126.15153194 119.45079914 -123.48046875 117.33203125 C-123.68690551 112.48076737 -124.63566316 109.79978641 -127.48046875 105.83203125 C-130.31706919 101.83624313 -131.48046875 99.24562995 -131.48046875 94.33203125 C-129.31614955 91.08555245 -129.15885745 90.94301932 -125.63671875 90.19921875 C-124.50943359 89.94978516 -124.50943359 89.94978516 -123.359375 89.6953125 C-122.57433594 89.53417969 -121.78929687 89.37304688 -120.98046875 89.20703125 C-115.58617918 88.20537544 -115.58617918 88.20537544 -110.48046875 86.33203125 C-110.48046875 85.67203125 -110.48046875 85.01203125 -110.48046875 84.33203125 C-111.33318359 84.54859375 -111.33318359 84.54859375 -112.203125 84.76953125 C-123.40931851 87.46350765 -123.40931851 87.46350765 -128.85546875 85.45703125 C-130.48046875 84.33203125 -130.48046875 84.33203125 -131.48046875 82.33203125 C-131.55163257 79.95800624 -131.5645596 77.58202448 -131.54296875 75.20703125 C-131.53394531 73.92570312 -131.52492188 72.644375 -131.515625 71.32421875 C-131.50402344 70.33679688 -131.49242187 69.349375 -131.48046875 68.33203125 C-132.47046875 67.83703125 -132.47046875 67.83703125 -133.48046875 67.33203125 C-133.52171875 68.03328125 -133.56296875 68.73453125 -133.60546875 69.45703125 C-134.83559012 73.4988586 -136.96313224 75.99495654 -140.48046875 78.33203125 C-144.23046875 78.83203125 -144.23046875 78.83203125 -147.48046875 78.33203125 C-149.48046875 76.33203125 -149.48046875 76.33203125 -149.91796875 73.51953125 C-149.3439566 69.33744272 -147.62746483 68.01849132 -144.48046875 65.33203125 C-144.15046875 65.00203125 -143.82046875 64.67203125 -143.48046875 64.33203125 C-141.79862927 64.09916117 -140.10922715 63.91938959 -138.41796875 63.76953125 C-137.03931641 63.64384766 -137.03931641 63.64384766 -135.6328125 63.515625 C-134.92253906 63.45503906 -134.21226562 63.39445312 -133.48046875 63.33203125 C-133.81046875 62.34203125 -134.14046875 61.35203125 -134.48046875 60.33203125 C-135.01760026 53.8864531 -134.17316342 50.65385593 -130.48046875 45.33203125 C-127.65163128 43.91761251 -125.6067013 44.01302793 -122.48046875 44.33203125 C-119.97340248 47.02076899 -119.06939268 49.35100248 -118.29296875 52.89453125 C-116.7747738 58.3908841 -113.9244811 62.25513684 -110.41796875 66.69140625 C-106.7119653 71.74233031 -105.10292274 76.10749135 -104.48046875 82.33203125 C-95.63359447 75.91253064 -88.62859763 70.28155288 -85.98828125 59.3359375 C-85.48046875 57.33203125 -85.48046875 57.33203125 -84.48046875 56.33203125 C-81.79296875 55.83203125 -81.79296875 55.83203125 -78.48046875 56.33203125 C-76.78534514 57.95743255 -75.41804055 59.72405865 -73.96875 61.5703125 C-71.72686515 64.22409221 -69.78769594 65.29446978 -66.48046875 66.33203125 C-63.38646265 66.42007207 -60.51292513 65.91519594 -57.48046875 65.33203125 C-55.83304688 65.04972656 -55.83304688 65.04972656 -54.15234375 64.76171875 C-47.52608676 63.71366276 -47.52608676 63.71366276 -42.21484375 59.9765625 C-40.7600919 57.75839357 -39.58965154 55.69571303 -38.54296875 53.26953125 C-35.50074668 47.02127515 -30.33786632 44.58240019 -24.37109375 41.48046875 C-22.32682991 40.46831073 -22.32682991 40.46831073 -21.48046875 38.33203125 C-22.34929687 38.29464844 -23.218125 38.25726563 -24.11328125 38.21875 C-35.84753514 37.54934625 -35.84753514 37.54934625 -40.48046875 34.33203125 C-41.92254816 31.44787242 -41.57441762 28.91481597 -41.54296875 25.70703125 C-41.53394531 24.51851562 -41.52492188 23.33 -41.515625 22.10546875 C-41.49822266 20.73261719 -41.49822266 20.73261719 -41.48046875 19.33203125 C-42.14046875 19.00203125 -42.80046875 18.67203125 -43.48046875 18.33203125 C-48.29766964 20.65142427 -51.69268596 22.62037199 -54.48046875 27.33203125 C-54.89149259 30.82723399 -54.71999027 34.26062528 -54.54296875 37.76953125 C-54.01603486 49.10254218 -54.01603486 49.10254218 -57.48046875 54.33203125 C-60.17788547 57.10235112 -61.73016252 58.1942199 -65.54296875 58.89453125 C-68.48046875 58.33203125 -68.48046875 58.33203125 -70.73046875 56.33203125 C-72.8649401 52.67293751 -73.51840369 49.45034485 -74.48046875 45.33203125 C-75.66125 45.28304687 -76.84203125 45.2340625 -78.05859375 45.18359375 C-79.61590812 45.10854246 -81.17319866 45.03299564 -82.73046875 44.95703125 C-83.50777344 44.92609375 -84.28507813 44.89515625 -85.0859375 44.86328125 C-92.37089653 44.48969361 -92.37089653 44.48969361 -95.48046875 42.33203125 C-97.79300598 39.32573285 -97.9146948 36.0650184 -97.77734375 32.3359375 C-96.23366233 21.9160879 -81.45482921 13.57486305 -73.58813477 7.72216797 C-50.71625835 -9.010203 -25.60432023 -17.21739329 0 0 Z M-127.48046875 48.33203125 C-130.47980874 52.45612374 -131.00401156 55.2711174 -130.48046875 60.33203125 C-129.70280862 61.91975401 -128.92495135 63.50738204 -128.14453125 65.09375 C-126.86233765 69.41549665 -127.33164594 73.95264237 -127.47265625 78.41796875 C-127.47523438 79.37960938 -127.4778125 80.34125 -127.48046875 81.33203125 C-126.36880011 82.66390918 -126.36880011 82.66390918 -123.54296875 82.51953125 C-118.74617146 82.46956461 -114.14209622 81.38253885 -109.48046875 80.33203125 C-109.89301997 74.70315442 -111.15423718 71.91453213 -114.79296875 67.64453125 C-118.9026213 62.49446033 -120.9691325 58.00526007 -122.53125 51.6328125 C-122.84449219 50.87355469 -123.15773438 50.11429688 -123.48046875 49.33203125 C-125.50490312 48.41682063 -125.50490312 48.41682063 -127.48046875 48.33203125 Z M-145.48046875 71.33203125 C-145.15046875 72.65203125 -144.82046875 73.97203125 -144.48046875 75.33203125 C-141.31329592 73.74844483 -139.74778557 72.87939426 -138.16796875 69.64453125 C-137.94109375 68.88140625 -137.71421875 68.11828125 -137.48046875 67.33203125 C-140.76205359 67.33203125 -142.85927983 69.50859548 -145.48046875 71.33203125 Z M-0.48046875 111.33203125 C-3.39615157 118.05866879 -4.08051032 125.07761283 -4.48046875 132.33203125 C-2.78658617 133.59002386 -2.78658617 133.59002386 -0.48046875 134.33203125 C2.16532464 133.54864333 2.16532464 133.54864333 4.83203125 132.08203125 C12.64484802 128.29431163 19.77071228 126.06283639 28.51953125 127.33203125 C30.97790699 128.45195798 33.16763956 129.76805275 35.453125 131.203125 C38.62341269 132.93509692 41.01134963 132.95112212 44.51953125 132.33203125 C46.70735112 130.3633369 46.70735112 130.3633369 48.51953125 128.33203125 C47.54113281 127.69587891 47.54113281 127.69587891 46.54296875 127.046875 C39.06146444 122.02610146 32.74192507 117.44384592 30.51953125 108.33203125 C28.02591554 109.53584573 25.83810042 110.78631847 23.51953125 112.33203125 C18.97089174 112.24620786 16.9834058 111.72017118 13.45703125 108.76953125 C10.74197401 106.1265864 10.74197401 106.1265864 7.45703125 105.70703125 C3.30935631 106.58951528 2.04437574 107.92007924 -0.48046875 111.33203125 Z M25.51953125 200.33203125 C24.11199606 206.37892824 25.03350537 209.7577095 27.70703125 215.26953125 C28.16432617 216.26629883 28.16432617 216.26629883 28.63085938 217.28320312 C29.85452463 219.9280645 31.09849849 222.55107478 32.48168945 225.11669922 C36.56179673 232.76626205 38.90340508 241.13281545 41.54492188 249.359375 C45.14969651 260.19067588 49.71034276 270.04561092 57.76953125 278.26953125 C60.26377034 280.83735814 62.36203367 283.06671406 64.19140625 286.1484375 C64.84882812 287.22931641 64.84882812 287.22931641 65.51953125 288.33203125 C66.17953125 288.33203125 66.83953125 288.33203125 67.51953125 288.33203125 C69.63809052 281.97635343 68.28020302 276.50012509 66.01953125 270.39453125 C65.74890869 269.65146729 65.47828613 268.90840332 65.19946289 268.14282227 C62.22909546 260.22100266 58.5021306 252.78493899 54.51953125 245.33203125 C54.03532715 244.41969727 53.55112305 243.50736328 53.05224609 242.56738281 C47.51824619 232.16148352 41.89033033 221.80236395 36.01953125 211.58203125 C35.63490723 210.89761963 35.2502832 210.21320801 34.85400391 209.50805664 C32.5703354 205.59783649 30.27529962 202.87875089 26.51953125 200.33203125 C26.18953125 200.33203125 25.85953125 200.33203125 25.51953125 200.33203125 Z " fill="#08A3FF" transform="translate(650.48046875,109.66796875)"/>
<path d="M0 0 C0.67342815 0.00001133 1.34685631 0.00002266 2.04069138 0.00003433 C6.57170332 0.0002983 11.10199419 0.02575187 15.6328125 0.06640625 C16.80756638 0.07198547 17.98232025 0.0775647 19.19267273 0.08331299 C20.27780655 0.09908386 21.36294037 0.11485474 22.48095703 0.13110352 C23.4297171 0.14174332 24.37847717 0.15238312 25.35598755 0.16334534 C28.01807016 0.45307092 29.64529069 0.96790373 31.875 2.4375 C33.0625 5.0625 33.0625 5.0625 32.875 8.4375 C29.29888233 14.5129118 23.07974219 18.93658796 17.7043457 23.36547852 C14.57614246 25.94968537 11.69713177 28.57686391 8.9375 31.5625 C-1.89243963 42.68946329 -16.78946012 48.9508697 -31.64453125 52.34765625 C-37.80451281 54.27653936 -41.87793859 58.0062818 -46.4375 62.4375 C-51.63360045 67.19766239 -56.28729181 71.07268922 -63.5078125 71.6171875 C-67.84225201 71.40261129 -69.71909718 70.77575235 -73.125 67.9375 C-74.115 66.7 -74.115 66.7 -75.125 65.4375 C-75.62 64.9425 -75.62 64.9425 -76.125 64.4375 C-77.15155277 56.0637624 -75.4401098 49.46613759 -72.21875 41.76171875 C-70.98436176 38.01006021 -70.65545285 35.36092759 -71.125 31.4375 C-73.98337065 26.13457107 -78.44397985 24.68446413 -83.8125 22.6875 C-92.06024096 19.50225904 -92.06024096 19.50225904 -93.125 18.4375 C-93.16592937 16.10452567 -93.16741723 13.77044775 -93.125 11.4375 C-87.54850342 7.98083602 -82.06850965 7.65134255 -75.625 7.0625 C-68.61624875 6.37053616 -61.70258251 5.6449957 -54.81640625 4.13671875 C-36.56789059 0.2380849 -18.58120183 -0.02921491 0 0 Z M-40.91864014 6.04986572 C-44.01518527 6.59389621 -47.12237991 7.06221595 -50.23046875 7.53515625 C-52.25792242 7.85607716 -54.28526881 8.17767666 -56.3125 8.5 C-64.78170244 9.84102536 -73.22968614 11.02603075 -81.78393555 11.66625977 C-84.76262842 11.93313168 -86.71251687 12.11159749 -89.09765625 13.99609375 C-89.60619141 14.70958984 -89.60619141 14.70958984 -90.125 15.4375 C-85.75988898 17.7008909 -81.49725727 19.69480262 -76.875 21.375 C-72.74705357 22.98559661 -70.43722642 24.51676825 -68.125 28.4375 C-65.48176426 36.36720721 -68.43679308 43.11301785 -71.08007812 50.5859375 C-73.16537929 56.44342042 -73.16537929 56.44342042 -72.125 62.4375 C-70.13367591 65.30002838 -68.68496083 67.14519965 -65.14453125 67.80859375 C-56.98961799 67.59209163 -51.68108064 61.85628023 -46.1015625 56.4921875 C-40.06043606 50.79626828 -33.80676325 48.77759058 -25.91796875 46.51953125 C-11.15655816 42.22944158 -0.33561364 34.88341909 10.265625 23.90625 C13.98477002 20.38753795 18.03951519 17.33982286 22.1784668 14.33105469 C25.68725976 11.70129025 27.71230184 9.71869322 28.875 5.4375 C27.3013255 3.8638255 25.69221353 4.24995728 23.50488281 4.18457031 C22.57170227 4.15494202 21.63852173 4.12531372 20.67706299 4.0947876 C19.14308868 4.05560211 19.14308868 4.05560211 17.578125 4.015625 C16.51954285 3.98772888 15.46096069 3.95983276 14.37030029 3.93109131 C12.11054459 3.87449287 9.85071197 3.82090069 7.59082031 3.77001953 C4.20833138 3.68948408 0.82711962 3.58537338 -2.5546875 3.48046875 C-15.6306721 3.14176259 -28.03443896 3.77680715 -40.91864014 6.04986572 Z " fill="#08A3FF" transform="translate(475.125,83.5625)"/>
<path d="M0 0 C2.62011719 0.3984375 2.62011719 0.3984375 5 1 C6.32293747 9.41555562 5.50796641 16.34456798 3.4375 24.5625 C3.16228516 25.69494141 2.88707031 26.82738281 2.60351562 27.99414062 C-6.09556604 62.96880837 -6.09556604 62.96880837 -16 69 C-20.6032007 69.98816473 -24.05191195 69.58046207 -28.0625 67.125 C-30.86883036 62.59866071 -30.77253762 59.19896941 -30 54 C-29.09760795 50.56251587 -28.06538918 47.18606051 -26.99609375 43.796875 C-25.92157965 39.70108007 -25.53476569 35.82598422 -25.1875 31.625 C-24.60551111 25.68787086 -23.45505947 21.82970381 -19.0546875 17.6484375 C-16.16818182 15.33264778 -13.25260127 13.06920127 -10.26953125 10.87890625 C-7.00830664 8.17899396 -4.49733662 4.97089886 -1.921875 1.625 C-1.28765625 1.08875 -0.6534375 0.5525 0 0 Z M1 5 C-0.37534119 6.52280665 -1.72465281 8.06915027 -3.0625 9.625 C-6.50370266 13.50457242 -9.89996278 16.72618001 -14.17578125 19.6484375 C-17.3416446 21.99402363 -19.63969555 23.75007786 -20.7578125 27.62890625 C-20.87898437 28.59699219 -21.00015625 29.56507813 -21.125 30.5625 C-21.27195312 31.61824219 -21.41890625 32.67398438 -21.5703125 33.76171875 C-21.78300781 35.36466797 -21.78300781 35.36466797 -22 37 C-23.62174941 46.94930391 -23.62174941 46.94930391 -25.125 51.125 C-26.33759104 55.10922769 -26.78837093 58.88116411 -26 63 C-23.96283266 65.38941123 -23.96283266 65.38941123 -21 66 C-15.8189675 64.54285053 -14.1278323 61.93608346 -11.38330078 57.53710938 C-9.22691452 53.58208537 -7.7781648 49.54070082 -6.4375 45.25 C-6.00425415 43.9038562 -6.00425415 43.9038562 -5.56225586 42.53051758 C-3.50146809 35.97419112 -1.69776733 29.36201189 -0.0625 22.6875 C0.14898682 21.83510742 0.36047363 20.98271484 0.57836914 20.10449219 C1.77872466 14.94362722 2.20116871 10.2974426 2 5 C1.67 5 1.34 5 1 5 Z " fill="#08A3FF" transform="translate(744,540)"/>
<path d="M0 0 C2.57595661 2.57595661 2.18940244 4.26023491 2.2253418 7.76293945 C2.30275777 14.98255395 2.65284387 20.04106438 7.3125 25.83203125 C13.04610172 33.1981168 17.0809796 43.02636743 18.5 52.25 C17.76980916 56.26604964 16.27114234 57.61479204 13 60 C8.92120202 61.3651829 5.84968723 61.26144222 1.75 60 C-5.06213494 55.04572004 -6.09347472 47.39140716 -7.875 39.62109375 C-9.0659417 35.78775016 -10.62094371 33.21239804 -13 30 C-13.55042969 29.25234375 -14.10085938 28.5046875 -14.66796875 27.734375 C-15.16941406 27.07953125 -15.67085937 26.4246875 -16.1875 25.75 C-19.99112023 20.78122015 -20.76041917 17.26289676 -20 11 C-15.46937311 2.10654721 -9.45990154 -0.4504715 0 0 Z M-14.875 9.8125 C-16.60858756 13.1833647 -16.56306636 15.2462243 -16 19 C-14.26644365 21.88348206 -12.13479908 24.40594155 -10 27 C-5.36441989 32.94305143 -3.71179949 39.16384561 -2.08984375 46.4140625 C-0.92606941 50.24325549 0.52194723 52.86958107 3 56 C5.89706707 57.24677006 5.89706707 57.24677006 9 57 C11.83658587 55.68326167 11.83658587 55.68326167 14 54 C13.55335361 42.83384023 8.0735337 32.73013809 1.41796875 23.98828125 C-1.39002033 20.05090813 -1.07696318 16.56013382 -1 11.875 C-0.96251354 9.58363995 -0.95312149 7.29118714 -1 5 C-2.02708333 3.77291667 -2.02708333 3.77291667 -4.1875 3.6875 C-8.74336134 4.19370682 -11.64771638 6.6927925 -14.875 9.8125 Z " fill="#08A3FF" transform="translate(738,209)"/>
<path d="M0 0 C5.62693372 -0.36650526 9.07820615 0.59875824 14.0625 3.1875 C15.22910156 3.77917969 16.39570313 4.37085938 17.59765625 4.98046875 C21.11325302 7.06722366 23.89827885 9.35598269 27 12 C27.845625 12.33 28.69125 12.66 29.5625 13 C32.83881085 14.34412753 34.68867843 16.35848963 37 19 C37 19.66 37 20.32 37 21 C30.86111111 23.28703704 30.86111111 23.28703704 27.375 22.125 C25.07879591 20.07050161 24.40284142 18.90998258 23.0625 16.25 C18.65359216 8.59093574 7.98079158 5.50998941 0 3 C0 2.01 0 1.02 0 0 Z " fill="#08A3FF" transform="translate(249,330)"/>
<path d="M0 0 C1.12921875 -0.00257813 2.2584375 -0.00515625 3.421875 -0.0078125 C6.25 0.125 6.25 0.125 8.25 1.125 C7.7438686 5.55364971 6.40110054 7.97389946 3.25 11.125 C-1.49153571 13.7194252 -5.35676075 14.92399841 -10.75 14.125 C-13.89119177 11.78581464 -15.50853281 10.39270274 -16.25 6.5 C-15.64607234 3.63134361 -15.18835667 2.75057112 -12.75 1.125 C-8.46693749 0.2187288 -4.37080866 -0.01007099 0 0 Z M-11.75 6.125 C-11.09 7.445 -10.43 8.765 -9.75 10.125 C-4.4641451 10.62841475 -1.88445849 9.39410671 2.25 6.125 C2.58 5.465 2.91 4.805 3.25 4.125 C1.31280622 4.07093878 -0.62481921 4.03217975 -2.5625 4 C-3.64144531 3.97679687 -4.72039062 3.95359375 -5.83203125 3.9296875 C-8.94402868 3.89476283 -8.94402868 3.89476283 -11.75 6.125 Z " fill="#08A3FF" transform="translate(485.75,131.875)"/>
<path d="M0 0 C1.875 0.25 1.875 0.25 4 1 C5.8486979 3.9087904 6.27285021 6.2088932 6.25 9.625 C6.25515625 10.40101563 6.2603125 11.17703125 6.265625 11.9765625 C6 14 6 14 4 16 C1 16.25 1 16.25 -2 16 C-4 14 -4 14 -4.375 10.25 C-4.29288504 5.75010023 -2.77033261 3.46291577 0 0 Z M1 6 C-0.29633621 7.06645115 -0.29633621 7.06645115 -0.0625 9.5625 C-0.041875 10.366875 -0.02125 11.17125 0 12 C0.99 11.67 1.98 11.34 3 11 C2.67 9.35 2.34 7.7 2 6 C1.67 6 1.34 6 1 6 Z " fill="#08A3FF" transform="translate(879,415)"/>
<path d="M0 0 C0.66 0 1.32 0 2 0 C2 0.99 2 1.98 2 3 C1.34 3 0.68 3 0 3 C0 2.01 0 1.02 0 0 Z " fill="#08A3FF" transform="translate(297,353)"/>
</svg>
