<?xml version="1.0" encoding="UTF-8" standalone="no"?>
<!-- Created with Inkscape (http://www.inkscape.org/) -->

<svg
   width="297mm"
   height="210mm"
   viewBox="0 0 297 210"
   version="1.1"
   id="svg1"
   xmlns="http://www.w3.org/2000/svg"
   xmlns:svg="http://www.w3.org/2000/svg">
  <defs
     id="defs1">
    <marker
       orient="auto"
       refY="0"
       refX="0"
       id="DistanceStart"
       style="overflow:visible"
       markerWidth="1"
       markerHeight="1"
       viewBox="0 0 1 1"
       preserveAspectRatio="xMidYMid">
      <g
         transform="scale(0.6)"
         id="g13">
        <path 
           d="m 0,-40 v 0"
           id="path12" />
        <path 
           d="M 0,0 8,5 V -5 Z"
           style="fill:context-stroke;fill-rule:evenodd;stroke:none"
           id="path13" />
        <path 
           d="M 0,-8 V 40"
           style="fill:none;stroke:context-stroke;stroke-width:1;stroke-linecap:square"
           id="path14" />
      </g>
    </marker>
    <marker
       style="overflow:visible"
       id="marker11"
       refX="0"
       refY="0"
       orient="auto"
       markerWidth="1"
       markerHeight="1"
       viewBox="0 0 1 1"
       preserveAspectRatio="xMidYMid">
      <path 
         transform="scale(0.5)"
         style="fill:context-stroke;fill-rule:evenodd;stroke:none"
         d="M 5,0 C 5,2.76 2.76,5 0,5 -2.76,5 -5,2.76 -5,0 c 0,-2.76 2.3,-5 5,-5 2.76,0 5,2.24 5,5 z"
         id="path11" />
    </marker>
    <marker
       style="overflow:visible"
       id="Dot"
       refX="0"
       refY="0"
       orient="auto"
       markerWidth="1"
       markerHeight="1"
       viewBox="0 0 1 1"
       preserveAspectRatio="xMidYMid">
      <path 
         transform="scale(0.5)"
         style="fill:context-stroke;fill-rule:evenodd;stroke:none"
         d="M 5,0 C 5,2.76 2.76,5 0,5 -2.76,5 -5,2.76 -5,0 c 0,-2.76 2.3,-5 5,-5 2.76,0 5,2.24 5,5 z"
         id="path17" />
    </marker>
    <marker
       style="overflow:visible"
       id="marker9"
       refX="0"
       refY="0"
       orient="auto"
       markerWidth="6.0230904"
       markerHeight="7.0799999"
       viewBox="0 0 6.0230906 7.08"
       preserveAspectRatio="xMidYMid">
      <g
         transform="scale(0.6)"
         id="g9">
        <path 
           style="fill:none;fill-rule:evenodd;stroke:context-stroke;stroke-width:1.8"
           d="m 4.625493,-5.0456926 c -2.76,0 -5,2.24 -5,5 0,2.76 2.24,5 5,5"
           id="path8" />
        <path 
           style="fill:none;fill-rule:evenodd;stroke:context-stroke;stroke-width:1.8"
           d="m -5.4129913,-5.0456926 c 2.76,0 5,2.24 5,5 0,2.76 -2.24,5 -5,5"
           id="path9" />
      </g>
    </marker>
    <marker
       style="overflow:visible"
       id="CurvyCross"
       refX="0"
       refY="0"
       orient="auto"
       markerWidth="6.0230904"
       markerHeight="7.0799999"
       viewBox="0 0 6.0230906 7.08"
       preserveAspectRatio="xMidYMid">
      <g
         transform="scale(0.6)"
         id="g28">
        <path 
           style="fill:none;fill-rule:evenodd;stroke:context-stroke;stroke-width:1.8"
           d="m 4.625493,-5.0456926 c -2.76,0 -5,2.24 -5,5 0,2.76 2.24,5 5,5"
           id="path27" />
        <path 
           style="fill:none;fill-rule:evenodd;stroke:context-stroke;stroke-width:1.8"
           d="m -5.4129913,-5.0456926 c 2.76,0 5,2.24 5,5 0,2.76 -2.24,5 -5,5"
           id="path28" />
      </g>
    </marker>
    <marker
       style="overflow:visible"
       id="Stop"
       refX="0"
       refY="0"
       orient="auto"
       markerWidth="1"
       markerHeight="1"
       viewBox="0 0 1 1"
       preserveAspectRatio="xMidYMid">
      <path 
         style="fill:none;stroke:context-stroke;stroke-width:1"
         d="M 0,4 V -4"
         id="path23" />
    </marker>
  </defs>
  <g
     id="layer1">
    <circle
       style="fill:none;fill-opacity:1;stroke:#000000;stroke-width:1.717;stroke-linecap:butt;stroke-miterlimit:0;stroke-dasharray:5.151, 5.151;stroke-dashoffset:0;stroke-opacity:1;marker-mid:url(#Stop);marker-end:url(#Stop)"
       id="path7"
       cx="140.5276"
       cy="106.69689"
       r="80" />
    <circle
       style="fill:none;fill-opacity:1;stroke:#000000;stroke-width:1.717;stroke-linecap:butt;stroke-miterlimit:0;stroke-dasharray:1.717, 3.434;stroke-dashoffset:0;stroke-opacity:1;marker-mid:url(#CurvyCross);marker-end:url(#marker9)"
       id="path7-5"
       cx="173.47697"
       cy="-29.255779"
       r="68.79892"
       transform="rotate(46.759923)" />
    <circle
       style="fill:none;fill-opacity:1;stroke:#000000;stroke-width:1.40579;stroke-linecap:butt;stroke-miterlimit:0;stroke-dasharray:11.2463, 1.40579;stroke-dashoffset:0;stroke-opacity:1;marker-mid:url(#Dot);marker-end:url(#marker11)"
       id="path7-5-2"
       cx="148.3203"
       cy="-94.144333"
       r="56.329224"
       transform="rotate(69.551151)" />
    <circle
       style="fill:none;fill-opacity:1;stroke:#000000;stroke-width:0.96703;stroke-linecap:butt;stroke-miterlimit:0;stroke-dasharray:1.93406, 0.96703;stroke-dashoffset:0;stroke-opacity:1;marker-mid:url(#DistanceStart);marker-end:url(#DistanceStart)"
       id="path7-5-2-4"
       cx="173.54935"
       cy="27.138885"
       r="38.748379"
       transform="rotate(28.172173)" />
  </g>
</svg>
